<svg width="488" height="549" viewBox="0 0 488 549" fill="none" xmlns="http://www.w3.org/2000/svg">
<path d="M0 0H478C483.523 0 488 4.47715 488 10V539C488 544.523 483.523 549 478 549H0V0Z" fill="url(#paint0_linear)"/>
<circle cx="243.5" cy="274.5" r="210.5" fill="#81DEFC" fill-opacity="0.24"/>
<circle cx="244" cy="274" r="166" fill="#81DEFC" fill-opacity="0.24"/>
<g clip-path="url(#clip0)">
<g opacity="0.2">
<path opacity="0.2" d="M194.157 360.719C194.32 361.491 194.536 362.245 194.804 362.976C198.966 361.086 203.175 359.274 207.429 357.541C207.393 357.337 207.357 357.122 207.312 356.911C206.883 354.733 205.969 352.723 204.659 351.081C202.958 349.004 200.766 348 198.634 348.612C196.502 349.225 194.954 351.323 194.247 354.082C193.719 356.248 193.688 358.536 194.157 360.719Z" fill="#3F3D56"/>
<path opacity="0.2" d="M200.138 356.589C203.792 355.646 205.869 350.299 204.777 344.646C203.685 338.994 199.838 335.177 196.184 336.12C192.529 337.064 190.452 342.411 191.544 348.063C192.636 353.716 196.484 357.533 200.138 356.589Z" fill="#3F3D56"/>
<path opacity="0.2" d="M197.574 344.12C201.228 343.177 203.305 337.83 202.213 332.177C201.121 326.525 197.274 322.708 193.619 323.651C189.965 324.595 187.888 329.942 188.98 335.594C190.072 341.247 193.919 345.064 197.574 344.12Z" fill="#3F3D56"/>
<path opacity="0.2" d="M195.004 331.659C198.658 330.715 200.735 325.368 199.643 319.716C198.552 314.063 194.704 310.246 191.05 311.19C187.396 312.133 185.319 317.48 186.411 323.133C187.503 328.785 191.35 332.602 195.004 331.659Z" fill="#3F3D56"/>
<path opacity="0.2" d="M192.435 319.194C196.089 318.25 198.166 312.903 197.074 307.251C195.982 301.599 192.135 297.781 188.481 298.725C184.826 299.669 182.749 305.016 183.841 310.668C184.933 316.32 188.78 320.137 192.435 319.194Z" fill="#3F3D56"/>
<path opacity="0.2" d="M197.508 216.531C198.131 214.915 198.657 213.252 199.083 211.552L181.116 213.187L199.844 207.948C200.739 202.504 200.625 196.901 199.511 191.511C198.535 186.738 196.784 182.224 194.352 178.206L172.433 200.865L191.408 174.044C183.662 164.482 171.944 159.933 160.299 163.312C142.898 168.342 132.235 189.129 136.481 209.738C138.169 218.063 142.215 225.496 147.977 230.857C147.009 233.373 146.273 236 145.782 238.695L171.061 246.014L145.183 243.421C144.873 247.598 145.144 251.806 145.986 255.884C147.676 264.208 151.723 271.641 157.484 277.003C154.457 284.862 153.758 293.658 155.496 302.023C159.742 322.633 177.29 335.259 194.69 330.232C212.091 325.205 222.754 304.419 218.508 283.809C216.817 275.485 212.77 268.052 207.009 262.691C210.037 254.831 210.736 246.036 208.998 237.67C207.315 229.339 203.27 221.898 197.508 216.531Z" fill="#15AAD9"/>
<path opacity="0.1" d="M145.992 255.87C147.682 264.195 151.729 271.627 157.49 276.989C154.463 284.849 153.764 293.644 155.502 302.009C159.748 322.619 177.296 335.245 194.696 330.218C212.097 325.191 222.76 304.405 218.514 283.795C216.823 275.471 212.776 268.039 207.015 262.677C209.932 255.109 145.129 251.692 145.992 255.87Z" fill="black"/>
</g>
<g opacity="0.2">
<path opacity="0.2" d="M274.915 356.914C274.806 357.816 274.763 358.726 274.786 359.636C280.006 359.732 285.247 359.936 290.507 360.245C290.543 360.006 290.579 359.764 290.609 359.518C290.948 356.979 290.695 354.382 289.875 351.995C288.791 348.941 286.77 346.757 284.24 346.334C281.709 345.912 279.242 347.352 277.46 349.921C276.088 351.948 275.209 354.363 274.915 356.914Z" fill="#3F3D56"/>
<path opacity="0.2" d="M292.425 345.013C293.241 338.454 290.388 332.552 286.054 331.832C281.719 331.111 277.544 335.845 276.728 342.405C275.913 348.964 278.765 354.866 283.1 355.586C287.435 356.307 291.61 351.573 292.425 345.013Z" fill="#3F3D56"/>
<path opacity="0.2" d="M294.229 330.495C295.045 323.936 292.192 318.034 287.858 317.314C283.523 316.593 279.348 321.327 278.532 327.887C277.717 334.446 280.569 340.348 284.904 341.068C289.239 341.789 293.414 337.055 294.229 330.495Z" fill="#3F3D56"/>
<path opacity="0.2" d="M296.033 315.981C296.849 309.421 293.996 303.519 289.661 302.799C285.326 302.079 281.151 306.812 280.336 313.372C279.52 319.932 282.373 325.833 286.708 326.554C291.042 327.274 295.218 322.54 296.033 315.981Z" fill="#3F3D56"/>
<path opacity="0.2" d="M297.84 301.463C298.656 294.903 295.803 289.002 291.468 288.281C287.133 287.561 282.958 292.295 282.143 298.854C281.327 305.414 284.18 311.316 288.515 312.036C292.849 312.757 297.024 308.023 297.84 301.463Z" fill="#3F3D56"/>
<path opacity="0.2" d="M331.708 205.688C332.977 204.285 334.16 202.781 335.247 201.187L315.115 193.875L337.391 197.77C340.199 192.744 342.09 187.108 342.949 181.208C343.809 175.307 343.618 169.266 342.389 163.454L310.24 176.416L340.748 157.548C338.805 151.953 335.886 146.882 332.174 142.648C328.461 138.415 324.034 135.111 319.169 132.942C314.304 130.773 309.105 129.785 303.895 130.04C298.686 130.296 293.577 131.789 288.888 134.427C284.2 137.064 280.031 140.79 276.642 145.371C273.253 149.953 270.716 155.292 269.19 161.057C267.663 166.821 267.18 172.887 267.77 178.877C268.36 184.867 270.01 190.653 272.618 195.873C270.646 198.052 268.882 200.47 267.357 203.084L292.124 223.608L264.961 207.793C262.104 214.308 260.697 221.544 260.867 228.847C261.037 236.149 262.78 243.287 265.937 249.615C260.779 255.3 257.109 262.549 255.346 270.533C253.584 278.517 253.8 286.913 255.97 294.761C258.14 302.61 262.176 309.594 267.618 314.915C273.059 320.236 279.686 323.68 286.74 324.852C293.794 326.024 300.991 324.877 307.509 321.543C314.026 318.209 319.6 312.822 323.594 305.998C327.588 299.174 329.84 291.188 330.094 282.953C330.347 274.719 328.591 266.568 325.027 259.433C331.191 252.638 335.201 243.644 336.413 233.897C337.625 224.15 335.967 214.215 331.708 205.688Z" fill="#15AAD9"/>
<path opacity="0.1" d="M261.233 221.406C260.009 231.153 261.666 241.092 265.937 249.614C260.779 255.3 257.109 262.549 255.346 270.533C253.584 278.517 253.8 286.913 255.97 294.761C258.14 302.61 262.176 309.594 267.618 314.915C273.059 320.236 279.686 323.68 286.74 324.852C293.794 326.024 300.991 324.877 307.509 321.543C314.026 318.209 319.6 312.822 323.594 305.998C327.588 299.174 329.84 291.188 330.094 282.953C330.347 274.719 328.591 266.568 325.027 259.433C330.986 252.872 261.841 216.527 261.233 221.406Z" fill="black"/>
</g>
<path opacity="0.1" d="M237.5 386C318.41 386 384 381.299 384 375.5C384 369.701 318.41 365 237.5 365C156.59 365 91 369.701 91 375.5C91 381.299 156.59 386 237.5 386Z" fill="#15AAD9"/>
<path d="M349.914 365.943C354.098 365.943 357.49 365.189 357.49 364.257C357.49 363.326 354.098 362.571 349.914 362.571C345.73 362.571 342.338 363.326 342.338 364.257C342.338 365.189 345.73 365.943 349.914 365.943Z" fill="#15AAD9"/>
<path d="M349.788 364.881C350.276 364.881 350.671 364.282 350.671 363.544C350.671 362.806 350.276 362.208 349.788 362.208C349.3 362.208 348.905 362.806 348.905 363.544C348.905 364.282 349.3 364.881 349.788 364.881Z" fill="#3F3D56"/>
<path d="M349.788 363.247C350.276 363.247 350.671 362.648 350.671 361.91C350.671 361.172 350.276 360.574 349.788 360.574C349.3 360.574 348.905 361.172 348.905 361.91C348.905 362.648 349.3 363.247 349.788 363.247Z" fill="#3F3D56"/>
<path d="M349.788 361.616C350.276 361.616 350.671 361.018 350.671 360.28C350.671 359.541 350.276 358.943 349.788 358.943C349.3 358.943 348.905 359.541 348.905 360.28C348.905 361.018 349.3 361.616 349.788 361.616Z" fill="#3F3D56"/>
<path d="M349.788 359.985C350.276 359.985 350.671 359.387 350.671 358.649C350.671 357.911 350.276 357.313 349.788 357.313C349.3 357.313 348.905 357.911 348.905 358.649C348.905 359.387 349.3 359.985 349.788 359.985Z" fill="#3F3D56"/>
<path d="M349.788 358.351C350.276 358.351 350.671 357.753 350.671 357.015C350.671 356.277 350.276 355.678 349.788 355.678C349.3 355.678 348.905 356.277 348.905 357.015C348.905 357.753 349.3 358.351 349.788 358.351Z" fill="#3F3D56"/>
<path d="M349.788 356.721C350.276 356.721 350.671 356.122 350.671 355.384C350.671 354.646 350.276 354.048 349.788 354.048C349.3 354.048 348.905 354.646 348.905 355.384C348.905 356.122 349.3 356.721 349.788 356.721Z" fill="#3F3D56"/>
<path d="M349.788 355.09C350.276 355.09 350.671 354.492 350.671 353.754C350.671 353.015 350.276 352.417 349.788 352.417C349.3 352.417 348.905 353.015 348.905 353.754C348.905 354.492 349.3 355.09 349.788 355.09Z" fill="#3F3D56"/>
<path d="M353.088 342.588C353.209 342.411 353.319 342.223 353.417 342.027L351.1 341.588L353.606 341.609C353.846 341.004 353.977 340.348 353.991 339.683C354.005 339.017 353.901 338.356 353.687 337.738L350.324 339.756L353.426 337.118C353.137 336.534 352.746 336.026 352.279 335.625C351.812 335.224 351.278 334.938 350.711 334.787C350.144 334.635 349.556 334.62 348.984 334.744C348.412 334.867 347.868 335.125 347.386 335.503C346.904 335.88 346.495 336.369 346.184 336.938C345.873 337.507 345.667 338.143 345.579 338.809C345.491 339.474 345.522 340.153 345.671 340.803C345.821 341.454 346.084 342.061 346.446 342.588C346.259 342.865 346.097 343.163 345.964 343.478L348.959 345.285L345.752 344.039C345.527 344.81 345.473 345.635 345.594 346.436C345.715 347.238 346.008 347.992 346.446 348.63C345.956 349.35 345.651 350.216 345.566 351.127C345.481 352.039 345.62 352.959 345.967 353.784C346.313 354.609 346.853 355.304 347.525 355.79C348.197 356.277 348.974 356.535 349.767 356.535C350.56 356.535 351.337 356.277 352.009 355.79C352.681 355.304 353.221 354.609 353.568 353.784C353.914 352.959 354.053 352.039 353.968 351.127C353.883 350.216 353.578 349.35 353.088 348.63C353.674 347.769 353.992 346.706 353.992 345.611C353.992 344.516 353.674 343.452 353.088 342.592V342.588Z" fill="#15AAD9"/>
<path opacity="0.1" d="M345.542 345.607C345.539 346.702 345.856 347.765 346.44 348.626C345.95 349.347 345.645 350.212 345.56 351.124C345.475 352.035 345.614 352.956 345.961 353.781C346.307 354.605 346.847 355.301 347.519 355.787C348.191 356.273 348.968 356.531 349.761 356.531C350.554 356.531 351.331 356.273 352.003 355.787C352.675 355.301 353.215 354.605 353.562 353.781C353.908 352.956 354.047 352.035 353.962 351.124C353.877 350.212 353.572 349.347 353.082 348.626C353.654 347.795 345.542 345.06 345.542 345.607Z" fill="black"/>
<path d="M175.936 379.504C181.526 379.504 186.057 378.497 186.057 377.254C186.057 376.011 181.526 375.004 175.936 375.004C170.346 375.004 165.815 376.011 165.815 377.254C165.815 378.497 170.346 379.504 175.936 379.504Z" fill="#15AAD9"/>
<path d="M175.765 378.081C176.417 378.081 176.945 377.283 176.945 376.299C176.945 375.314 176.417 374.516 175.765 374.516C175.114 374.516 174.586 375.314 174.586 376.299C174.586 377.283 175.114 378.081 175.765 378.081Z" fill="#3F3D56"/>
<path d="M175.765 375.9C176.417 375.9 176.945 375.102 176.945 374.117C176.945 373.133 176.417 372.334 175.765 372.334C175.114 372.334 174.586 373.133 174.586 374.117C174.586 375.102 175.114 375.9 175.765 375.9Z" fill="#3F3D56"/>
<path d="M175.765 373.719C176.417 373.719 176.945 372.921 176.945 371.936C176.945 370.952 176.417 370.153 175.765 370.153C175.114 370.153 174.586 370.952 174.586 371.936C174.586 372.921 175.114 373.719 175.765 373.719Z" fill="#3F3D56"/>
<path d="M175.765 371.542C176.417 371.542 176.945 370.743 176.945 369.759C176.945 368.774 176.417 367.976 175.765 367.976C175.114 367.976 174.586 368.774 174.586 369.759C174.586 370.743 175.114 371.542 175.765 371.542Z" fill="#3F3D56"/>
<path d="M175.765 369.361C176.417 369.361 176.945 368.562 176.945 367.578C176.945 366.593 176.417 365.795 175.765 365.795C175.114 365.795 174.586 366.593 174.586 367.578C174.586 368.562 175.114 369.361 175.765 369.361Z" fill="#3F3D56"/>
<path d="M175.765 367.179C176.417 367.179 176.945 366.381 176.945 365.396C176.945 364.412 176.417 363.613 175.765 363.613C175.114 363.613 174.586 364.412 174.586 365.396C174.586 366.381 175.114 367.179 175.765 367.179Z" fill="#3F3D56"/>
<path d="M175.765 365.002C176.417 365.002 176.945 364.204 176.945 363.219C176.945 362.234 176.417 361.436 175.765 361.436C175.114 361.436 174.586 362.234 174.586 363.219C174.586 364.204 175.114 365.002 175.765 365.002Z" fill="#3F3D56"/>
<path d="M180.179 348.301C180.339 348.063 180.485 347.813 180.616 347.553L177.523 346.964L180.871 346.996C181.193 346.188 181.369 345.312 181.387 344.422C181.406 343.533 181.267 342.648 180.979 341.823L176.487 344.517L180.628 341.013C180.239 340.241 179.716 339.57 179.092 339.041C178.469 338.513 177.758 338.138 177.004 337.94C176.25 337.742 175.469 337.725 174.71 337.89C173.95 338.056 173.228 338.4 172.588 338.901C171.948 339.402 171.403 340.05 170.989 340.805C170.575 341.56 170.299 342.404 170.178 343.287C170.058 344.17 170.096 345.072 170.289 345.938C170.483 346.803 170.828 347.613 171.304 348.318C171.053 348.688 170.838 349.087 170.66 349.509L174.681 351.932L170.393 350.271C170.092 351.298 170.016 352.396 170.173 353.466C170.329 354.536 170.714 355.543 171.292 356.399C170.637 357.361 170.23 358.517 170.117 359.735C170.004 360.953 170.19 362.182 170.653 363.284C171.115 364.385 171.837 365.314 172.735 365.963C173.633 366.613 174.67 366.957 175.729 366.957C176.789 366.957 177.826 366.613 178.724 365.963C179.622 365.314 180.343 364.385 180.806 363.284C181.269 362.182 181.455 360.953 181.342 359.735C181.229 358.517 180.822 357.361 180.167 356.399C180.949 355.248 181.374 353.827 181.374 352.364C181.374 350.9 180.949 349.479 180.167 348.328L180.179 348.301Z" fill="#15AAD9"/>
<path opacity="0.1" d="M170.097 352.334C170.093 353.797 170.515 355.219 171.295 356.371C170.64 357.334 170.233 358.49 170.12 359.707C170.007 360.925 170.193 362.155 170.656 363.256C171.118 364.357 171.84 365.286 172.738 365.935C173.636 366.585 174.673 366.93 175.732 366.93C176.792 366.93 177.829 366.585 178.727 365.935C179.625 365.286 180.346 364.357 180.809 363.256C181.272 362.155 181.458 360.925 181.345 359.707C181.232 358.49 180.825 357.334 180.17 356.371C180.934 355.26 170.097 351.604 170.097 352.334Z" fill="black"/>
<path d="M229.225 278.152C228.462 273.534 227.608 268.905 227.468 264.207C227.384 261.437 227.551 258.619 227.243 255.857C227.09 254.499 226.824 253.167 226.56 251.834L225.5 246.499C225.62 245.476 225.586 244.437 225.398 243.428C225.292 242.896 225.151 242.374 224.976 241.866C225.966 240.256 226.781 238.512 227.405 236.673C227.686 235.842 227.929 234.96 227.818 234.08C227.602 232.394 226.189 231.283 224.874 230.452C224.078 229.95 223.239 229.465 222.329 229.386C221.693 229.356 221.059 229.497 220.477 229.797C219.895 230.097 219.381 230.549 218.975 231.117C218.754 229.752 218.828 228.345 219.191 227.021C218.409 226.616 217.622 226.235 216.828 225.865C216.714 224.668 216.674 223.464 216.709 222.261C216.727 220.817 216.747 219.359 216.819 217.912C218.949 217.014 220.79 215.384 222.095 213.24C223.4 211.097 224.106 208.544 224.12 205.923C224.12 205.774 224.12 205.629 224.12 205.483C224.7 204.277 225.067 202.95 225.2 201.578C225.333 200.206 225.228 198.818 224.892 197.493C224.015 194.031 221.721 191.178 218.957 189.416C216.193 187.654 212.989 186.909 209.818 186.778C208.754 186.706 207.686 186.784 206.638 187.01C205.517 187.329 204.43 187.794 203.398 188.395C201.814 189.239 200.218 190.164 199.032 191.621C196.975 194.159 196.514 197.888 196.739 201.315C197.038 205.816 198.338 210.171 199.841 214.36C200.341 215.745 200.874 217.151 201.697 218.331C202.335 219.242 203.443 219.297 204.323 218.66C204.254 219.766 204.232 220.875 204.258 221.984C202.632 221.918 201.048 222.226 199.742 223.285C199.143 223.781 198.574 224.559 198.706 225.397C199.106 225.41 199.489 225.585 199.788 225.892C200.087 226.199 200.283 226.619 200.341 227.076C200.407 227.814 200.086 228.517 199.775 229.154C199.64 229.438 199.505 229.725 199.368 230.009C198.08 231.601 196.759 233.595 196.643 235.572C196.433 235.595 196.224 235.631 196.017 235.68C194.849 235.929 193.687 236.389 192.54 236.736L184.24 239.263L182.188 239.921L178.895 240.925C176.798 241.562 174.663 242.216 172.804 243.497C170.944 244.778 169.366 246.789 168.992 249.213C168.806 250.418 168.92 251.671 168.692 252.865C168.692 252.921 168.674 252.973 168.663 253.025C168.472 253.781 168.216 254.513 167.899 255.209C166.039 259.741 164.716 264.681 164.964 269.67C165.117 272.734 165.863 275.722 166.587 278.672C167.348 281.688 168.099 284.705 168.839 287.721C169.328 289.881 169.947 291.998 170.693 294.057C171.97 297.355 173.866 300.284 176.241 302.633C176.908 303.324 177.654 303.906 178.457 304.364C179.683 304.976 181.02 305.227 182.35 305.094C182.709 305.066 183.063 305.021 183.413 304.956C185.985 304.485 188.384 303.051 190.585 301.438C191.505 300.764 192.404 300.054 193.28 299.309C193.391 300.472 193.592 301.621 193.879 302.743C194.073 303.515 194.313 304.308 194.235 305.108C194.127 306.223 193.427 307.137 193.064 308.182C192.295 310.391 193.085 312.853 193.214 315.221C193.337 317.44 192.87 319.642 192.495 321.826C191.87 325.47 191.501 329.165 191.39 332.877C191.387 334.283 191.307 335.686 191.151 337.08C190.872 339.047 190.22 340.944 190.106 342.931C189.932 346.026 191.088 349.055 190.983 352.154C190.86 355.793 189.013 359.327 189.657 362.886C189.737 363.333 189.956 363.849 190.309 363.963L190.136 364.147C189.606 364.714 189.091 365.763 189.693 366.224C189.831 366.319 189.985 366.38 190.145 366.404C191.076 366.629 192.013 366.833 192.951 367.024C192.93 368.025 193.039 369.023 193.274 369.987C193.445 370.129 193.618 370.257 193.792 370.378C193.66 370.787 193.669 371.182 193.981 371.417C194.119 371.512 194.273 371.573 194.433 371.597C202.146 373.437 210.024 374.193 217.894 373.847C219.302 373.785 220.772 373.667 221.973 372.836C223.174 372.006 223.985 370.236 223.413 368.779C222.907 367.491 221.584 366.934 220.395 366.504L218.999 366.006C219.178 365.639 219.282 365.231 219.304 364.811C219.326 364.391 219.265 363.971 219.125 363.582C218.619 362.294 217.295 361.737 216.107 361.308L212.894 360.155C212.471 360.039 212.073 359.823 211.726 359.521C211.496 359.257 211.283 358.972 211.091 358.67C210.627 358.057 210.018 357.615 209.339 357.399C209.303 356.612 209.318 355.823 209.384 355.038L210.282 342.502C210.483 339.663 210.681 336.769 210.109 333.995C209.878 332.87 209.51 331.717 209.734 330.589C210.085 328.747 211.762 327.722 212.906 326.355C214.63 324.277 215.166 321.324 215.562 318.513C217.198 306.912 217.713 295.137 217.095 283.404C220.69 282.233 224.389 281.545 228.12 281.355C228.755 281.324 229.067 280.977 229.264 280.292C229.462 279.606 229.342 278.862 229.225 278.152ZM211.304 278.765C211.325 278.644 211.348 278.523 211.366 278.402L211.615 278.769L211.304 278.765Z" fill="url(#paint1_linear)"/>
<path d="M205.464 215.219C205.387 216.424 205.018 217.58 204.883 218.781C204.731 220.104 204.865 221.451 204.791 222.783C204.716 224.116 204.383 225.518 203.506 226.387C208.605 226.898 213.628 228.154 218.454 230.127C216.996 228.049 216.957 225.148 216.993 222.482C217.041 218.539 217.101 214.519 218.215 210.798C214.892 209.939 211.452 209.887 208.111 210.645C207.387 210.812 205.192 210.708 204.865 211.49C204.629 212.065 205.518 214.346 205.464 215.219Z" fill="#A1616A"/>
<path opacity="0.1" d="M205.464 215.219C205.387 216.424 205.018 217.58 204.883 218.781C204.731 220.104 204.865 221.451 204.791 222.783C204.716 224.116 204.383 225.518 203.506 226.387C208.605 226.898 213.628 228.154 218.454 230.127C216.996 228.049 216.957 225.148 216.993 222.482C217.041 218.539 217.101 214.519 218.215 210.798C214.892 209.939 211.452 209.887 208.111 210.645C207.387 210.812 205.192 210.708 204.865 211.49C204.629 212.065 205.518 214.346 205.464 215.219Z" fill="black"/>
<path d="M211.501 358.687C211.681 358.994 211.881 359.285 212.1 359.556C212.437 359.858 212.826 360.074 213.241 360.19L216.379 361.342C217.544 361.772 218.838 362.326 219.332 363.613C219.889 365.068 219.095 366.837 217.921 367.664C216.747 368.492 215.31 368.613 213.936 368.675C206.24 369.018 198.537 368.263 191.001 366.428C190.846 366.402 190.696 366.341 190.561 366.248C189.962 365.781 190.474 364.735 190.992 364.171C193.013 361.955 195.211 359.632 197.963 359.12C199.41 358.846 200.862 358.957 202.299 358.559C203.332 358.272 204.309 357.776 205.339 357.482C207.258 356.939 210.13 356.745 211.501 358.687Z" fill="#46455B"/>
<path opacity="0.1" d="M211.501 358.687C211.681 358.994 211.881 359.285 212.1 359.556C212.437 359.858 212.826 360.074 213.241 360.19L216.379 361.342C217.544 361.772 218.838 362.326 219.332 363.613C219.889 365.068 219.095 366.837 217.921 367.664C216.747 368.492 215.31 368.613 213.936 368.675C206.24 369.018 198.537 368.263 191.001 366.428C190.846 366.402 190.696 366.341 190.561 366.248C189.962 365.781 190.474 364.735 190.992 364.171C193.013 361.955 195.211 359.632 197.963 359.12C199.41 358.846 200.862 358.957 202.299 358.559C203.332 358.272 204.309 357.776 205.339 357.482C207.258 356.939 210.13 356.745 211.501 358.687Z" fill="black"/>
<path d="M195.744 280.382C194.196 285.106 194.101 290.303 195.475 295.099C194.43 294.968 193.978 296.602 194.005 297.82C194.042 299.517 194.264 301.201 194.666 302.833C194.858 303.609 195.092 304.398 195.017 305.195C194.909 306.309 194.226 307.223 193.87 308.265C193.121 310.471 193.891 312.929 194.02 315.293C194.139 317.513 193.681 319.711 193.313 321.892C192.703 325.531 192.342 329.221 192.235 332.926C192.233 334.33 192.154 335.733 191.998 337.125C191.729 339.092 191.1 340.985 190.98 342.969C190.809 346.057 191.938 349.087 191.837 352.182C191.717 355.813 189.908 359.345 190.54 362.914C190.63 363.416 190.872 364.008 191.319 364.015C195.834 364.081 200.053 362.63 204.521 363.388C204.976 351.437 205.419 339.431 207.456 327.698C209.252 317.253 212.298 306.926 212.013 296.276C211.849 290.186 210.597 284.214 209.836 278.183C205.062 276.958 200.067 277.737 195.744 280.382Z" fill="#BBBDC8"/>
<path opacity="0.1" d="M195.744 280.382C194.196 285.106 194.101 290.303 195.475 295.099C194.43 294.968 193.978 296.602 194.005 297.82C194.042 299.517 194.264 301.201 194.666 302.833C194.858 303.609 195.092 304.398 195.017 305.195C194.909 306.309 194.226 307.223 193.87 308.265C193.121 310.471 193.891 312.929 194.02 315.293C194.139 317.513 193.681 319.711 193.313 321.892C192.703 325.531 192.342 329.221 192.235 332.926C192.233 334.33 192.154 335.733 191.998 337.125C191.729 339.092 191.1 340.985 190.98 342.969C190.809 346.057 191.938 349.087 191.837 352.182C191.717 355.813 189.908 359.345 190.54 362.914C190.63 363.416 190.872 364.008 191.319 364.015C195.834 364.081 200.053 362.63 204.521 363.388C204.976 351.437 205.419 339.431 207.456 327.698C209.252 317.253 212.298 306.926 212.013 296.276C211.849 290.186 210.597 284.214 209.836 278.183C205.062 276.958 200.067 277.737 195.744 280.382Z" fill="black"/>
<path d="M215.693 363.88C215.873 364.187 216.074 364.478 216.292 364.749C216.63 365.051 217.018 365.267 217.433 365.383L220.571 366.535C221.736 366.965 223.03 367.519 223.524 368.807C224.081 370.261 223.287 372.03 222.114 372.857C220.94 373.685 219.502 373.806 218.128 373.868C210.432 374.211 202.729 373.456 195.193 371.621C195.038 371.595 194.888 371.534 194.753 371.441C194.154 370.974 194.666 369.928 195.184 369.364C197.206 367.148 199.404 364.825 202.155 364.313C203.602 364.039 205.054 364.15 206.491 363.752C207.525 363.465 208.501 362.97 209.531 362.675C211.45 362.132 214.322 361.938 215.693 363.88Z" fill="#46455B"/>
<path d="M197.301 280.725C196.146 282.456 195.804 284.741 195.96 286.908C196.116 289.075 196.748 291.156 197.367 293.209C196.544 294.085 196.715 295.594 196.822 296.882C197.215 301.667 195.777 306.441 195.987 311.239C196.074 313.258 196.454 315.248 196.544 317.267C196.643 319.472 196.4 321.677 196.173 323.869C194.719 337.899 193.919 352.008 193.777 366.137C193.777 367.439 193.759 368.762 194.076 370.008C196.253 371.86 198.987 372.109 201.622 371.417C204.258 370.725 206.662 369.18 209.025 367.657C210.319 366.883 211.546 365.967 212.69 364.922C213.04 364.636 213.299 364.225 213.427 363.752C213.678 362.367 212.013 361.741 211.058 360.844C209.669 359.539 209.69 357.122 209.833 355.059L210.702 342.54C210.899 339.704 211.091 336.814 210.534 334.044C210.306 332.922 209.956 331.769 210.166 330.641C210.507 328.806 212.148 327.781 213.265 326.414C214.954 324.336 215.475 321.39 215.864 318.586C217.699 305.282 218.089 291.765 217.026 278.35C214.825 279.232 212.217 278.751 209.896 278.959C207.575 279.167 205.27 280.063 202.919 280.136C200.961 280.188 198.505 278.938 197.301 280.725Z" fill="#BBBDC8"/>
<path d="M213.157 218.975C219.276 218.975 224.237 213.24 224.237 206.166C224.237 199.091 219.276 193.356 213.157 193.356C207.038 193.356 202.078 199.091 202.078 206.166C202.078 213.24 207.038 218.975 213.157 218.975Z" fill="#A1616A"/>
<path d="M219.419 227.236C215.868 225.35 212.166 223.873 208.366 222.825C205.689 222.088 202.632 221.644 200.395 223.497C199.796 223.992 199.254 224.771 199.383 225.608C199.777 225.624 200.155 225.8 200.447 226.107C200.739 226.414 200.928 226.831 200.979 227.284C201.045 228.018 200.733 228.721 200.428 229.361L197.843 234.901C197.348 235.899 196.923 236.94 196.571 238.017C196.05 239.775 195.936 241.659 195.825 243.514L195.526 248.541C195.34 251.709 195.151 254.891 195.4 258.052C195.586 260.437 196.017 262.833 195.723 265.204C195.487 267.112 194.789 268.902 194.397 270.778C193.66 274.309 193.996 278.18 192.567 281.42C193.147 281.111 193.802 281.042 194.421 281.227C198.757 282.151 202.167 286.108 206.378 287.621C207.441 285.828 208.881 284.505 210.07 282.836C210.954 281.586 211.539 280.089 211.768 278.495C212.666 279.88 213.43 280.96 213.966 282.566C214.061 282.94 214.224 283.286 214.445 283.581C215.011 284.218 215.942 283.972 216.7 283.705C220.414 282.41 224.254 281.658 228.129 281.465C228.752 281.434 229.055 281.088 229.249 280.403C229.444 279.717 229.336 278.976 229.219 278.27C228.474 273.655 227.641 269.033 227.504 264.342C227.42 261.572 227.584 258.765 227.282 256.002C227.132 254.648 226.872 253.315 226.614 251.986L224.476 241.001C224.356 240.388 223.787 239.986 223.545 239.422C222.563 237.123 220.685 235.462 219.715 233.156C218.982 231.294 218.876 229.183 219.419 227.236Z" fill="#46455B"/>
<path d="M203.874 211.293C203.861 211.113 203.898 210.934 203.979 210.78C204.098 210.637 204.246 210.531 204.41 210.472C204.857 210.227 205.222 209.82 205.451 209.314C205.679 208.807 205.759 208.228 205.677 207.665L206.725 207.412L206.758 203.192C208.315 202.195 210.438 202.949 211.902 201.776C212.726 201.111 213.148 199.982 213.651 198.978C214.154 197.974 214.903 196.963 215.903 196.88C215.559 197.892 215.412 198.978 215.471 200.063C215.531 201.148 215.796 202.204 216.247 203.157C217.296 202.543 218.172 201.597 218.772 200.429L219.293 203.891C219.303 204.104 219.382 204.306 219.514 204.455C219.787 204.687 220.155 204.396 220.395 204.109L221.751 202.568C222.322 204.225 222.713 205.956 222.916 207.723C225.144 205.224 225.836 201.208 224.979 197.76C224.123 194.311 221.88 191.455 219.179 189.693C216.478 187.931 213.346 187.19 210.247 187.058C209.206 186.988 208.162 187.066 207.138 187.29C206.04 187.61 204.977 188.074 203.97 188.675C202.422 189.516 200.859 190.441 199.703 191.895C197.691 194.429 197.239 198.154 197.46 201.589C197.76 206.089 199.023 210.434 200.494 214.616C200.982 216.001 201.503 217.403 202.308 218.584C203.521 220.36 206.5 218.885 206.12 215.375C205.857 212.868 203.874 213.834 203.874 211.293Z" fill="#3F3D56"/>
<path d="M208.067 279.873C204.33 288.701 198.591 296.191 191.462 301.546C189.309 303.155 186.971 304.589 184.452 305.06C184.108 305.125 183.764 305.17 183.413 305.198C182.115 305.322 180.81 305.066 179.619 304.454C178.831 303.995 178.102 303.412 177.451 302.723C175.121 300.365 173.269 297.441 172.028 294.161C171.299 292.102 170.693 289.988 170.217 287.832C169.482 284.818 168.749 281.802 168.019 278.786C167.303 275.836 166.581 272.852 166.432 269.784C166.189 264.803 167.483 259.869 169.3 255.344C169.61 254.647 169.86 253.917 170.046 253.163C170.046 253.111 170.067 253.059 170.076 253.004C170.292 251.809 170.181 250.56 170.375 249.355C170.741 246.931 172.286 244.923 174.1 243.646C175.915 242.368 177.993 241.714 180.056 241.077L183.269 240.076L185.264 239.457L193.376 236.933C194.499 236.587 195.634 236.126 196.774 235.894C198.047 235.617 198.038 235.763 198.137 237.203C198.32 239.813 198.26 242.379 198.736 244.965C199.188 247.433 199.985 249.812 200.583 252.235C202.096 258.353 202.347 264.792 203.539 271.007C203.811 272.423 204.189 273.932 205.174 274.815C206.303 275.854 208.204 276.11 208.504 277.737C208.615 278.46 208.336 279.201 208.067 279.873Z" fill="#15AAD9"/>
<path opacity="0.1" d="M184.452 305.046C184.108 305.111 183.764 305.156 183.413 305.184C182.116 305.313 180.811 305.062 179.619 304.454C178.831 303.995 178.102 303.412 177.451 302.723C175.121 300.365 173.269 297.441 172.028 294.161C171.299 292.102 170.693 289.988 170.217 287.832C169.482 284.818 168.749 281.802 168.019 278.786C167.303 275.836 166.581 272.852 166.432 269.784C166.189 264.803 167.483 259.869 169.3 255.344C169.61 254.647 169.86 253.917 170.046 253.163C170.046 253.111 170.067 253.059 170.076 253.004C174.963 253.997 180.826 264.806 183.85 278.969C186.078 289.56 186.174 299.312 184.452 305.046Z" fill="black"/>
<path opacity="0.1" d="M193.286 267.78L192.468 267.943C191.627 265.388 190.789 262.829 189.803 260.343C189.291 259.045 188.737 257.764 188.306 256.424C186.689 251.28 186.965 245.176 183.967 240.939C183.753 240.624 183.509 240.338 183.24 240.087L185.234 239.467C186.98 242.66 188.212 246.191 188.869 249.891C189.192 251.699 189.375 253.547 189.902 255.285C190.35 256.604 190.863 257.891 191.438 259.142C192.576 261.839 193.433 264.785 193.286 267.78Z" fill="black"/>
<path d="M201.245 228.773C203.398 226.64 206.336 225.47 209.124 226.003C210.765 226.311 212.289 227.166 213.759 228.08C216.625 229.839 219.448 231.864 221.515 234.755C222.754 236.579 223.782 238.58 224.575 240.71C224.964 241.641 225.265 242.617 225.473 243.622C226.204 247.534 224.41 251.422 222.682 254.891L219.359 261.559C217.831 264.623 216.292 267.707 214.304 270.397C213.388 271.637 212.382 272.783 211.378 273.929L206.974 278.956C206.894 279.064 206.791 279.144 206.674 279.187C206.578 279.193 206.482 279.175 206.392 279.134C206.303 279.093 206.222 279.029 206.156 278.949L204.701 277.609C206.041 276.538 207.287 275.317 208.42 273.963C210.324 271.685 211.89 269.064 213.448 266.454L218.293 258.332C219.709 255.954 221.188 253.336 221.03 250.456C220.955 249.071 220.506 247.769 220.035 246.499C219.203 244.239 218.299 242.015 217.322 239.827C216.226 237.373 215.029 234.949 213.451 232.875C211.873 230.802 209.878 229.067 207.581 228.316C206.896 228.057 206.17 227.977 205.455 228.08C203.88 228.382 202.76 229.946 201.763 231.401L198.727 235.901C198.035 236.923 197.4 238.107 197.358 236.168C197.287 233.402 199.706 230.552 201.245 228.773Z" fill="#15AAD9"/>
<path d="M202.185 259.135C202.784 261.801 203.668 264.827 205.887 265.838C207.459 266.554 209.3 265.973 210.66 264.799C212.019 263.625 212.983 261.971 213.87 260.298C214.62 258.796 215.447 257.346 216.346 255.957C218.122 253.381 220.538 251.339 221.736 248.34C222.09 247.447 222.335 246.492 222.736 245.633C223.165 244.841 223.65 244.092 224.186 243.393C225.564 241.418 226.667 239.206 227.453 236.836C227.728 236.009 227.965 235.122 227.857 234.246C227.644 232.56 226.264 231.452 224.979 230.625C224.198 230.123 223.38 229.635 222.491 229.559C221.191 229.441 219.913 230.251 219.113 231.439C218.343 232.667 217.913 234.136 217.879 235.652C217.79 237.497 218.101 239.415 217.58 241.16C217.304 241.974 216.924 242.735 216.451 243.417C214.769 246.019 212.687 248.241 210.309 249.971C210.244 248.662 209.999 247.372 209.582 246.152C209.354 245.481 204.892 246.152 204.311 246.263C203.162 246.457 200.934 246.609 200.209 247.877C199.484 249.144 200.383 251.273 200.676 252.55L202.185 259.135Z" fill="#A1616A"/>
<path d="M202.078 230.043C201.415 230.677 200.798 231.371 200.233 232.121C198.904 233.973 198.254 236.382 198.086 238.782C197.918 241.181 198.203 243.59 198.559 245.962C198.883 248.09 199.265 250.203 199.706 252.301C199.829 250.719 200.937 249.41 202.221 248.839C203.506 248.268 204.916 248.33 206.285 248.562C208.046 248.864 209.764 249.438 211.393 250.269L212.025 240.031C212.158 238.65 212.151 237.256 212.004 235.877C211.805 234.597 211.373 233.381 210.736 232.31C210.099 231.238 209.271 230.336 208.309 229.663C205.908 227.973 204.234 227.866 202.078 230.043Z" fill="#46455B"/>
<path d="M315.202 279.859C314.918 277.081 314.219 274.381 313.136 271.879C312.474 270.356 311.669 268.898 311.252 267.268C310.914 265.942 310.848 264.546 310.579 263.2C310.309 261.853 309.833 260.565 309.45 259.249C306.74 249.902 308.776 239.675 307.902 229.877C307.575 226.263 306.617 222.299 303.907 220.415C302.296 219.297 300.362 219.124 298.466 219.031L297.601 218.986L296.211 218.906C294.199 218.792 292.181 218.705 290.222 219.193C287.827 219.799 284.988 221.748 284.233 224.577C283.82 224.331 283.404 224.113 283.021 223.909C281.478 223.117 279.861 222.537 278.203 222.178C279.625 221.763 280.999 221.149 282.293 220.35C285.288 218.335 285.982 212.449 286.593 208.513C287.204 204.576 286.647 200.508 285.632 196.683C285.297 195.325 284.84 194.012 284.269 192.764C283.481 191.12 282.408 189.681 281.118 188.538C279.827 187.395 278.346 186.572 276.768 186.121C275.19 185.669 273.548 185.599 271.945 185.914C270.342 186.229 268.813 186.922 267.453 187.952C264.659 190.067 262.063 193.145 259.93 196.119C259.631 196.527 258.379 197.974 258.796 198.584C259.029 198.93 259.799 198.653 260.607 198.237C259.985 199.862 259.665 201.619 259.667 203.396C259.669 205.627 260.173 207.82 261.13 209.757C262.087 211.695 263.464 213.311 265.126 214.447L265.425 217.632V217.656C265.458 218.719 265.473 219.782 265.485 220.841C265.485 221.586 265.485 222.347 265.467 223.109C264.225 224.734 262.703 226.043 261 226.952C262.407 227.222 263.748 226.841 265.054 226.19C264.842 227.04 264.486 227.834 264.006 228.524C264.365 228.378 264.725 228.247 265.084 228.108C264.896 228.457 264.729 228.82 264.584 229.195C264.362 229.788 264.201 230.408 264.102 231.044C263.339 232.332 262.679 233.697 262.128 235.122C261.877 235.77 261.652 236.427 261.449 237.096V237.141C261.249 237.805 261.072 238.479 260.919 239.162C260.847 239.49 260.781 239.819 260.721 240.149C260.721 240.173 260.721 240.198 260.721 240.222C260.601 240.89 260.502 241.562 260.422 242.24C260.422 242.285 260.422 242.33 260.422 242.379C260.389 242.694 260.359 243.012 260.338 243.331C260.338 243.331 260.338 243.362 260.338 243.379C260.314 243.725 260.296 244.054 260.287 244.394C260.287 244.439 260.287 244.48 260.287 244.525C260.287 244.813 260.287 245.103 260.287 245.391V245.588C260.287 246.239 260.323 246.893 260.377 247.548C260.377 247.627 260.377 247.71 260.398 247.79C260.422 248.057 260.449 248.323 260.481 248.593C260.481 248.655 260.481 248.718 260.502 248.777C260.541 249.099 260.586 249.417 260.637 249.736C260.637 249.805 260.664 249.878 260.676 249.947C260.718 250.203 260.763 250.456 260.814 250.712L260.868 250.975C260.934 251.294 261.002 251.609 261.08 251.927C261.125 252.107 261.17 252.273 261.218 252.464C261.361 253.12 261.461 253.788 261.518 254.461L259.88 254.524C256.374 254.639 252.872 254.823 249.372 255.074C248.935 253.125 247.444 252 245.566 251.733C245.268 251.692 244.968 251.671 244.668 251.671C244.992 251.356 245.279 250.994 245.524 250.594C245.85 250.076 246.082 249.487 246.207 248.863C245.724 249.181 245.303 249.608 244.967 250.12C244.856 250.293 244.758 250.466 244.668 250.625V249.587C244.668 249.565 244.665 249.543 244.658 249.523C244.651 249.502 244.64 249.484 244.627 249.468C244.613 249.453 244.597 249.44 244.58 249.432C244.562 249.424 244.543 249.42 244.524 249.421H244.225C244.206 249.42 244.187 249.424 244.169 249.432C244.151 249.44 244.135 249.453 244.122 249.468C244.109 249.484 244.098 249.502 244.091 249.523C244.084 249.543 244.08 249.565 244.081 249.587V251.702H244.021H243.919C243.722 251.723 243.53 251.751 243.341 251.792C241.302 252.232 239.808 253.745 239.808 256.293C239.808 257.095 239.96 257.888 240.251 258.616C240.543 259.344 240.968 259.99 241.497 260.51C241.584 261.303 241.74 262.085 241.961 262.843C242.167 263.594 242.437 264.411 243.042 264.785C243.411 264.979 243.817 265.065 244.222 265.035C247.551 265.035 250.702 263.258 254.016 262.957C256.065 262.767 258.122 263.134 260.176 263.061C260.475 263.061 260.775 263.027 261.074 262.999C258.266 279.08 254.867 295.366 256.643 311.61C256.759 312.69 256.942 313.86 257.64 314.594C258.565 315.57 259.99 315.411 261.233 315.286C264.643 314.927 268.082 315.244 271.399 316.225C271.866 316.374 272.356 316.394 272.831 316.284C272.932 316.257 273.032 316.223 273.13 316.183L273.214 316.145C273.277 316.117 273.337 316.09 273.394 316.058L273.48 316.007L273.627 315.903C273.651 315.882 273.678 315.865 273.699 315.844C273.751 315.802 273.8 315.756 273.846 315.705L273.888 315.664C273.944 315.6 273.997 315.533 274.046 315.463L274.082 315.401C274.117 315.349 274.149 315.294 274.178 315.238C274.193 315.21 274.208 315.183 274.22 315.155C274.232 315.127 274.268 315.051 274.289 314.999C274.31 314.947 274.313 314.937 274.322 314.906C274.331 314.874 274.361 314.791 274.379 314.733C274.397 314.674 274.379 314.677 274.403 314.646C274.427 314.615 274.445 314.473 274.46 314.386V314.331C274.46 314.258 274.484 314.182 274.493 314.109C274.502 314.037 274.493 314.033 274.493 313.995C274.493 313.957 274.493 313.881 274.493 313.825V313.701C274.493 313.645 274.493 313.59 274.493 313.535V313.227C274.493 313.192 274.493 313.154 274.493 313.116C274.493 312.808 274.463 312.496 274.436 312.198C274.65 312.27 274.868 312.325 275.088 312.361C275.294 312.399 275.503 312.416 275.711 312.413H275.741C275.84 312.413 275.939 312.413 276.041 312.385C276.127 312.37 276.213 312.349 276.298 312.323H276.337C276.415 312.296 276.492 312.261 276.565 312.219L276.601 312.195C276.663 312.155 276.722 312.108 276.777 312.056L276.804 312.032C276.86 311.972 276.911 311.904 276.954 311.831L276.981 311.779C277.025 311.696 277.061 311.606 277.086 311.513C277.256 310.845 276.867 310.09 277.49 309.477C278.089 311.696 278.688 313.919 278.787 316.214C278.82 317.052 278.787 317.945 279.212 318.638C279.489 319.016 279.789 319.37 280.11 319.697C281.026 320.843 281.047 322.571 280.985 324.122C280.958 324.748 280.928 325.375 280.889 326.002C280.394 334.364 278.923 342.61 276.517 350.516C276.282 351.358 275.975 352.17 275.6 352.94C274.993 354.03 274.233 354.997 273.352 355.8C272.103 357.025 270.766 358.125 269.354 359.085C268.633 359.526 267.952 360.049 267.321 360.646C267.297 360.567 267.27 360.491 267.252 360.408C267.219 360.248 267.174 360.061 267.039 360.003C266.937 359.976 266.83 359.996 266.74 360.058C265.335 360.771 263.931 361.484 262.581 362.319C261.899 362.678 261.298 363.215 260.826 363.887C260.395 364.579 260.266 365.618 260.712 366.31C261.104 366.916 261.808 367.117 262.458 367.252C263.29 367.422 264.126 367.543 264.961 367.633C264.532 367.924 264.156 368.31 263.856 368.768C263.425 369.461 263.296 370.5 263.742 371.192C264.135 371.798 264.838 371.999 265.488 372.134C270.797 373.217 276.241 372.48 281.631 372.296C283.383 372.231 285.174 372.217 286.833 371.559C287.16 371.447 287.465 371.262 287.731 371.015C288.486 370.247 288.411 368.897 288.279 367.751L287.731 363.07C287.65 363.07 287.572 363.101 287.494 363.122C287.954 358.725 288.777 354.389 289.953 350.174C291.78 343.613 294.498 337.149 294.463 330.284C294.463 330.118 294.463 329.938 294.463 329.786C294.412 327.636 294.079 325.51 293.864 323.37C293.525 319.791 293.564 316.18 293.585 312.583C293.559 311.172 293.644 309.762 293.84 308.369C293.84 308.321 293.858 308.276 293.867 308.227L298.84 308.075C299.392 308.107 299.941 307.989 300.445 307.729C300.684 307.608 300.875 307.389 300.982 307.115C301.09 306.841 301.105 306.53 301.026 306.244C303.146 307.355 305.982 305.842 306.608 303.266C306.652 303.085 306.687 302.901 306.713 302.716C306.711 302.702 306.711 302.688 306.713 302.674C306.734 302.501 306.749 302.328 306.755 302.158C306.755 302.131 306.755 302.099 306.755 302.072C306.786 300.883 306.626 299.697 306.285 298.575C305.267 295.241 303.65 292.205 302.128 289.134C301.344 287.545 300.583 285.935 299.844 284.318L300.493 285.284C300.721 285.678 301.021 286.01 301.371 286.257C302.584 286.981 303.853 285.523 305.087 284.851C306.725 283.958 308.641 284.484 310.45 284.633C312.259 284.782 314.439 284.242 315.085 282.303C315.295 281.512 315.335 280.673 315.202 279.859ZM284.021 227.828C284.021 228.569 284.063 229.32 284.114 230.075C283.506 228.926 282.804 227.848 282.018 226.855L284.021 227.828Z" fill="url(#paint2_linear)"/>
<path d="M244.898 250.743C245.23 250.236 245.646 249.811 246.123 249.493C246.002 250.117 245.772 250.706 245.449 251.224C244.928 252.045 244.38 252.609 244.228 252.474C244.075 252.339 244.371 251.564 244.898 250.743Z" fill="#99D55C"/>
<path opacity="0.1" d="M244.964 250.805C245.206 250.428 245.512 250.112 245.863 249.874C245.771 250.335 245.601 250.771 245.362 251.155C244.973 251.764 244.566 252.194 244.464 252.086C244.362 251.979 244.575 251.415 244.964 250.805Z" fill="black"/>
<path d="M244.171 250.054H244.47C244.489 250.054 244.508 250.058 244.525 250.067C244.543 250.075 244.558 250.087 244.572 250.103C244.585 250.118 244.596 250.137 244.603 250.157C244.61 250.177 244.614 250.199 244.614 250.22V254.143H244.045V250.22C244.045 250.18 244.057 250.14 244.08 250.11C244.104 250.079 244.136 250.059 244.171 250.054Z" fill="#F6987E"/>
<path d="M249.39 256.913C249.39 258.382 248.885 259.791 247.987 260.829C247.088 261.868 245.87 262.452 244.599 262.452C243.328 262.452 242.11 261.868 241.211 260.829C240.313 259.791 239.808 258.382 239.808 256.913C239.808 254.375 241.284 252.872 243.299 252.433C243.728 252.341 244.163 252.296 244.599 252.298C244.899 252.297 245.199 252.318 245.497 252.36C247.713 252.678 249.39 254.209 249.39 256.913Z" fill="#FC4A4A"/>
<path opacity="0.1" d="M245.497 252.36C245.41 252.55 244.94 252.706 244.371 252.706C244 252.737 243.629 252.647 243.299 252.446C243.728 252.355 244.163 252.31 244.599 252.311C244.899 252.306 245.199 252.323 245.497 252.36Z" fill="black"/>
<path opacity="0.1" d="M245.398 262.32C244.128 262.32 242.909 261.737 242.011 260.698C241.112 259.659 240.607 258.25 240.607 256.781C240.607 254.288 242.03 252.796 243.988 252.329C243.757 252.349 243.527 252.384 243.299 252.433C241.284 252.872 239.808 254.375 239.808 256.913C239.808 258.382 240.313 259.791 241.211 260.829C242.11 261.868 243.328 262.452 244.599 262.452C244.961 262.453 245.322 262.405 245.674 262.31C245.581 262.317 245.497 262.32 245.398 262.32Z" fill="black"/>
<path d="M266.518 364.849C267.18 365.542 268.192 365.525 269.091 365.448L273.184 365.102C276.436 364.825 279.799 364.514 282.667 362.724C282.971 362.563 283.24 362.327 283.455 362.031C283.683 361.578 283.802 361.063 283.799 360.539C284.187 355.411 285.069 350.35 286.428 345.448C288.225 338.922 290.92 332.49 290.884 325.659C290.884 325.493 290.884 325.313 290.884 325.164C290.833 323.024 290.507 320.909 290.306 318.78C289.974 315.217 290.007 311.627 290.031 308.047C290.005 306.644 290.089 305.241 290.282 303.855C290.471 302.73 291.181 301.601 290.746 300.611C289.905 298.689 286.854 297.983 285.213 297.914C283.003 297.824 280.829 298.492 278.694 299.157C278.044 299.361 277.364 299.579 276.873 300.109C276.214 300.822 276.026 301.94 276.002 302.982C275.888 307.604 278.191 311.904 278.373 316.519C278.406 317.35 278.373 318.25 278.793 318.942C279.069 319.319 279.369 319.672 279.691 319.998C280.589 321.137 280.616 322.855 280.553 324.399C280.526 325.022 280.496 325.645 280.46 326.268C279.971 334.585 278.518 342.789 276.139 350.658C275.91 351.499 275.609 352.31 275.241 353.082C274.64 354.165 273.89 355.126 273.019 355.928C271.786 357.146 270.464 358.239 269.07 359.196C268.138 359.833 267.144 360.442 266.506 361.453C265.869 362.464 265.728 363.998 266.518 364.849Z" fill="#FDA8A8"/>
<path opacity="0.1" d="M266.518 364.849C267.18 365.542 268.192 365.525 269.091 365.448L273.184 365.102C276.436 364.825 279.799 364.514 282.667 362.724C282.971 362.563 283.24 362.327 283.455 362.031C283.683 361.578 283.802 361.063 283.799 360.539C284.187 355.411 285.069 350.35 286.428 345.448C288.225 338.922 290.92 332.49 290.884 325.659C290.884 325.493 290.884 325.313 290.884 325.164C290.833 323.024 290.507 320.909 290.306 318.78C289.974 315.217 290.007 311.627 290.031 308.047C290.005 306.644 290.089 305.241 290.282 303.855C290.471 302.73 291.181 301.601 290.746 300.611C289.905 298.689 286.854 297.983 285.213 297.914C283.003 297.824 280.829 298.492 278.694 299.157C278.044 299.361 277.364 299.579 276.873 300.109C276.214 300.822 276.026 301.94 276.002 302.982C275.888 307.604 278.191 311.904 278.373 316.519C278.406 317.35 278.373 318.25 278.793 318.942C279.069 319.319 279.369 319.672 279.691 319.998C280.589 321.137 280.616 322.855 280.553 324.399C280.526 325.022 280.496 325.645 280.46 326.268C279.971 334.585 278.518 342.789 276.139 350.658C275.91 351.499 275.609 352.31 275.241 353.082C274.64 354.165 273.89 355.126 273.019 355.928C271.786 357.146 270.464 358.239 269.07 359.196C268.138 359.833 267.144 360.442 266.506 361.453C265.869 362.464 265.728 363.998 266.518 364.849Z" fill="black"/>
<path d="M266.518 364.849C267.18 365.542 268.192 365.525 269.091 365.448L273.184 365.102C276.436 364.825 279.799 364.514 282.667 362.724C282.971 362.563 283.24 362.327 283.455 362.031C283.683 361.578 283.802 361.063 283.799 360.539C284.187 355.411 285.069 350.349 286.428 345.448C288.225 338.922 290.92 332.49 290.884 325.659C287.423 326.101 283.942 326.3 280.461 326.254C279.971 334.571 278.518 342.775 276.14 350.645C275.91 351.485 275.609 352.297 275.241 353.068C274.64 354.151 273.89 355.112 273.019 355.914C271.786 357.132 270.464 358.225 269.07 359.182C268.138 359.819 267.144 360.428 266.506 361.439C265.869 362.45 265.728 363.998 266.518 364.849Z" fill="#EEEFF3"/>
<path opacity="0.1" d="M266.518 364.849C267.18 365.542 268.192 365.525 269.091 365.448L273.184 365.102C276.436 364.825 279.799 364.514 282.667 362.724C282.971 362.563 283.24 362.327 283.455 362.031C283.683 361.578 283.802 361.063 283.799 360.539C284.187 355.411 285.069 350.349 286.428 345.448C288.225 338.922 290.92 332.49 290.884 325.659C287.423 326.101 283.942 326.3 280.461 326.254C279.971 334.571 278.518 342.775 276.14 350.645C275.91 351.485 275.609 352.297 275.241 353.068C274.64 354.151 273.89 355.112 273.019 355.914C271.786 357.132 270.464 358.225 269.07 359.182C268.138 359.819 267.144 360.428 266.506 361.439C265.869 362.45 265.728 363.998 266.518 364.849Z" fill="black"/>
<path d="M275.562 363.388C276.545 362.981 277.49 362.459 278.382 361.831L282.895 358.888C283.303 358.583 283.757 358.37 284.233 358.261L284.772 362.918C284.907 364.06 284.979 365.403 284.233 366.168C283.967 366.414 283.662 366.598 283.335 366.709C281.697 367.363 279.93 367.377 278.197 367.439C272.873 367.636 267.494 368.357 262.248 367.276C261.607 367.145 260.913 366.93 260.526 366.342C260.086 365.649 260.212 364.645 260.637 363.942C261.103 363.274 261.697 362.74 262.371 362.381C263.707 361.55 265.093 360.844 266.479 360.134C266.565 360.076 266.666 360.056 266.764 360.079C266.899 360.131 266.941 360.321 266.976 360.48C267.219 361.616 268.01 362.513 268.911 363.049C268.923 363.049 273.567 364.122 275.562 363.388Z" fill="#BBBDC8"/>
<path opacity="0.1" d="M275.562 363.388C276.545 362.981 277.49 362.459 278.382 361.831L282.895 358.888C283.303 358.583 283.757 358.37 284.233 358.261L284.772 362.918C284.907 364.06 284.979 365.403 284.233 366.168C283.967 366.414 283.662 366.598 283.335 366.709C281.697 367.363 279.93 367.377 278.197 367.439C272.873 367.636 267.494 368.357 262.248 367.276C261.607 367.145 260.913 366.93 260.526 366.342C260.086 365.649 260.212 364.645 260.637 363.942C261.103 363.274 261.697 362.74 262.371 362.381C263.707 361.55 265.093 360.844 266.479 360.134C266.565 360.076 266.666 360.056 266.764 360.079C266.899 360.131 266.941 360.321 266.976 360.48C267.219 361.616 268.01 362.513 268.911 363.049C268.923 363.049 273.567 364.122 275.562 363.388Z" fill="black"/>
<path d="M269.513 369.696C270.175 370.389 271.187 370.371 272.085 370.295L276.178 369.949C279.43 369.672 282.793 369.361 285.662 367.571C285.965 367.41 286.234 367.174 286.449 366.878C286.677 366.425 286.796 365.91 286.794 365.386C287.181 360.258 288.063 355.196 289.423 350.295C291.22 343.769 293.915 337.336 293.879 330.506C293.879 330.34 293.879 330.16 293.879 330.011C293.828 327.871 293.501 325.756 293.301 323.627C292.968 320.064 293.001 316.474 293.025 312.894C293 311.491 293.084 310.088 293.277 308.702C293.465 307.576 294.175 306.448 293.741 305.458C292.899 303.536 289.848 302.83 288.207 302.761C285.997 302.671 283.823 303.339 281.688 304.004C281.038 304.208 280.359 304.426 279.868 304.956C279.209 305.669 279.02 306.787 278.996 307.829C278.882 312.451 281.185 316.751 281.368 321.366C281.401 322.197 281.368 323.097 281.787 323.789C282.064 324.166 282.364 324.519 282.685 324.845C283.584 325.984 283.611 327.701 283.548 329.246C283.521 329.869 283.491 330.492 283.455 331.115C282.966 339.432 281.512 347.636 279.134 355.505C278.905 356.346 278.604 357.157 278.236 357.929C277.635 359.012 276.884 359.973 276.014 360.775C274.78 361.992 273.459 363.086 272.064 364.043C271.133 364.68 270.139 365.289 269.501 366.3C268.863 367.311 268.722 368.845 269.513 369.696Z" fill="#FDA8A8"/>
<path d="M269.513 369.696C270.175 370.389 271.187 370.371 272.085 370.295L276.178 369.949C279.43 369.672 282.793 369.361 285.662 367.571C285.965 367.41 286.234 367.174 286.449 366.878C286.677 366.425 286.796 365.91 286.794 365.386C287.181 360.258 288.063 355.196 289.423 350.295C291.22 343.769 293.915 337.336 293.879 330.506C290.418 330.948 286.937 331.147 283.455 331.101C282.966 339.418 281.512 347.622 279.134 355.491C278.905 356.332 278.604 357.143 278.236 357.915C277.635 358.998 276.884 359.959 276.014 360.761C274.78 361.979 273.459 363.072 272.064 364.029C271.133 364.666 270.139 365.275 269.501 366.286C268.863 367.297 268.722 368.845 269.513 369.696Z" fill="#EEEFF3"/>
<path d="M278.556 368.235C279.54 367.828 280.485 367.306 281.377 366.677L285.889 363.735C286.297 363.429 286.751 363.217 287.228 363.108L287.767 367.765C287.902 368.907 287.974 370.25 287.228 371.015C286.962 371.261 286.657 371.445 286.33 371.555C284.692 372.21 282.925 372.224 281.191 372.286C275.867 372.483 270.489 373.203 265.243 372.123C264.602 371.992 263.907 371.777 263.521 371.188C263.081 370.496 263.206 369.492 263.632 368.789C264.098 368.121 264.691 367.587 265.365 367.228C266.701 366.397 268.087 365.691 269.474 364.981C269.559 364.922 269.661 364.903 269.758 364.926C269.893 364.978 269.935 365.168 269.971 365.327C270.213 366.463 271.004 367.359 271.905 367.896C271.917 367.896 276.562 368.969 278.556 368.235Z" fill="#BBBDC8"/>
<path d="M263.707 229.261C265.165 227.184 265.204 224.283 265.168 221.617C265.168 220.578 265.141 219.505 265.108 218.449V218.425C265.067 216.484 264.89 214.55 264.578 212.643C264.42 211.728 264.21 210.826 263.949 209.943C264.147 209.891 264.344 209.842 264.548 209.801C267.687 209.084 270.917 209.084 274.055 209.801C274.597 209.925 275.969 209.898 276.75 210.206C276.973 210.267 277.167 210.424 277.292 210.645C277.445 211.016 277.131 212.089 276.903 213.041C276.778 213.47 276.707 213.918 276.693 214.371C276.724 214.796 276.78 215.218 276.861 215.634C277.002 216.399 277.188 217.158 277.274 217.933C277.427 219.256 277.292 220.602 277.367 221.935C277.442 223.268 277.774 224.67 278.652 225.539C273.554 226.045 268.532 227.295 263.707 229.261Z" fill="#FDA8A8"/>
<path opacity="0.1" d="M278.056 215.482C277.658 215.52 277.262 215.565 276.858 215.617C272.87 216.109 268.933 217.06 265.108 218.456V218.432L264.578 212.65C264.578 212.304 264.578 211.958 264.578 211.594C264.578 211.002 264.563 210.403 264.551 209.808C267.69 209.091 270.92 209.091 274.058 209.808C274.6 209.932 275.972 209.905 276.753 210.213C276.753 210.777 276.753 211.341 276.771 211.906C276.791 212.29 276.836 212.672 276.906 213.048C277.049 213.983 277.453 214.838 278.056 215.482Z" fill="black"/>
<path d="M270.501 217.071C276.62 217.071 281.58 211.336 281.58 204.261C281.58 197.187 276.62 191.452 270.501 191.452C264.382 191.452 259.421 197.187 259.421 204.261C259.421 211.336 264.382 217.071 270.501 217.071Z" fill="#FDA8A8"/>
<path d="M260.769 252.561C258.802 244.511 260.598 235.867 265.297 229.51C266.342 228.094 267.393 226.64 268.764 225.792C270.396 224.788 272.328 224.753 274.175 224.733C275.807 224.733 277.49 224.733 278.99 225.484C281.017 226.484 282.416 228.659 283.596 230.815C284.853 233.114 285.991 235.603 286.183 238.318C286.285 239.928 286.039 241.562 286.246 243.165C286.509 245.197 287.488 247.018 287.89 249.019C288.108 250.099 288.153 251.217 288.294 252.318C288.506 253.824 288.814 255.31 289.216 256.764C292.192 268.185 296.266 279.185 301.362 289.556C302.859 292.613 304.461 295.636 305.467 298.949C305.922 300.448 306.252 302.065 305.88 303.609C305.261 306.171 302.461 307.677 300.368 306.572C300.445 306.857 300.429 307.165 300.323 307.437C300.217 307.709 300.028 307.926 299.793 308.047C299.295 308.307 298.751 308.426 298.206 308.393L279.712 308.961C279.226 308.975 278.743 309.051 278.272 309.186C276.098 309.83 276.915 310.917 276.682 311.824C276.397 312.932 275.023 312.842 274.064 312.517C274.211 314.134 274.244 316.11 272.438 316.581C271.97 316.691 271.486 316.672 271.025 316.526C267.748 315.55 264.351 315.234 260.982 315.591C259.748 315.723 258.337 315.882 257.424 314.899C256.735 314.168 256.556 313.005 256.439 311.932C254.597 294.968 258.385 277.979 261.23 261.219C261.613 258.959 261.476 255.296 260.901 253.087L260.769 252.561Z" fill="#F75842"/>
<path d="M285.323 240.869C285.758 242.316 286.3 243.739 286.446 245.263C286.563 246.481 286.422 247.714 286.485 248.936C286.6 250.293 286.842 251.631 287.207 252.928C287.783 255.449 288.495 257.927 289.336 260.347C289.737 261.437 290.201 262.639 289.878 263.764C289.555 264.889 288.552 265.585 288.264 266.703C287.965 267.884 288.563 269.127 289.327 269.989C290.091 270.851 291.046 271.464 291.753 272.381C292.522 273.382 292.95 274.659 293.492 275.843C294.262 277.409 295.145 278.897 296.13 280.292L299.751 285.724C299.977 286.116 300.273 286.446 300.619 286.693C301.817 287.413 303.072 285.963 304.29 285.308C305.907 284.419 307.8 284.941 309.588 285.09C311.375 285.239 313.528 284.703 314.166 282.771C314.377 281.987 314.421 281.155 314.295 280.347C314.015 277.585 313.324 274.899 312.253 272.409C311.6 270.892 310.803 269.442 310.393 267.818C310.058 266.499 309.992 265.111 309.725 263.771C309.459 262.431 308.989 261.15 308.611 259.841C305.934 250.542 307.947 240.367 307.081 230.618C306.761 227.021 305.812 223.078 303.135 221.205C301.544 220.093 299.634 219.92 297.744 219.82L296.891 219.775L295.517 219.695C293.528 219.581 291.534 219.494 289.597 219.983C286.872 220.675 283.593 223.123 283.485 226.64C283.368 231.471 283.99 236.289 285.323 240.869Z" fill="#15AAD9"/>
<path opacity="0.1" d="M295.532 219.681C295.899 222.037 296.082 224.426 296.08 226.82C296.133 233.654 296.771 240.461 297.412 247.246L297.834 251.747C297.912 252.578 298.005 253.45 298.433 254.119C298.861 254.787 299.76 255.136 300.326 254.621C300.673 253.032 300.604 251.363 300.535 249.725C300.386 246.242 300.237 242.758 300.089 239.273C299.945 235.88 299.79 232.484 299.433 229.112C299.154 226.5 298.742 223.91 298.2 221.354C298.097 220.824 297.954 220.306 297.771 219.806L296.918 219.761L295.532 219.681Z" fill="black"/>
<path d="M275.966 222.61C274.13 222.306 272.208 222.15 270.465 222.887C268.8 223.597 267.471 225.055 266.273 226.588C265.456 227.577 264.781 228.709 264.272 229.943C263.251 232.657 263.65 235.787 264.272 238.66C265.97 246.575 269.342 254.209 274.753 259.433C276.4 260.98 278.154 262.37 279.996 263.587C282.392 265.211 284.865 266.703 287.515 267.641C288.255 267.905 289.043 268.126 289.8 267.939C290.558 267.752 291.273 267.043 291.297 266.146C286.955 263.324 283.063 259.679 279.197 256.05C278.137 255.105 277.145 254.063 276.229 252.935C274.858 251.152 273.891 248.998 272.561 247.174C271.363 245.536 269.866 244.155 268.968 242.282C268.404 241.003 268.027 239.625 267.851 238.204C267.408 235.306 267.324 232.228 268.318 229.517C269.312 226.806 271.591 224.58 274.136 224.629C275.442 224.653 276.684 225.252 277.888 225.837L285.464 229.534C285.371 229.486 285.898 227.966 285.874 227.755C285.803 227.094 285.701 227.083 285.276 226.581C284.551 225.744 283.425 225.155 282.506 224.667C280.422 223.623 278.22 222.93 275.966 222.61Z" fill="#15AAD9"/>
<path d="M260.886 201.838C263.047 201.283 265.048 200.09 266.692 198.376L265.108 207.987C266.686 207.149 268.216 206.196 269.689 205.134C269.902 209.531 269.594 214.028 268.192 218.12C266.791 222.212 264.207 225.875 260.739 227.693C263.817 228.288 266.581 225.733 269.321 224.006C271.232 222.804 274.496 224.04 276.586 223.313C278.358 222.711 280.179 222.185 281.778 221.108C284.749 219.103 285.422 213.249 286.024 209.337C286.626 205.425 286.078 201.374 285.078 197.566C284.745 196.217 284.295 194.911 283.733 193.667C282.962 192.035 281.906 190.604 280.632 189.467C279.359 188.33 277.895 187.511 276.333 187.061C274.771 186.612 273.146 186.541 271.56 186.855C269.974 187.168 268.461 187.859 267.117 188.883C264.356 190.984 261.796 194.076 259.688 197.008C259.389 197.413 258.152 198.854 258.562 199.459C259.062 200.193 261.997 198.102 262.494 197.818C262.35 198.445 261.458 201.675 260.886 201.838Z" fill="#FFD566"/>
<g opacity="0.1">
<path opacity="0.1" d="M273.346 313.812C272.877 313.921 272.393 313.902 271.932 313.756C268.656 312.78 265.258 312.464 261.889 312.821C260.655 312.953 259.245 313.112 258.331 312.129C257.643 311.399 257.463 310.235 257.346 309.162C255.505 292.198 259.293 275.21 262.137 258.45C262.521 256.189 262.383 252.526 261.808 250.317L261.673 249.781C260.565 245.204 260.63 240.353 261.862 235.818C259.819 241.081 259.432 247.003 260.769 252.561L260.904 253.097C261.479 255.306 261.616 258.983 261.233 261.23C258.397 277.99 254.609 294.988 256.442 311.942C256.559 313.015 256.741 314.179 257.427 314.909C258.325 315.882 259.751 315.723 260.985 315.601C264.354 315.244 267.751 315.56 271.028 316.536C271.489 316.682 271.973 316.701 272.441 316.592C273.915 316.207 274.163 314.819 274.127 313.445C273.888 313.621 273.623 313.745 273.346 313.812Z" fill="black"/>
<path opacity="0.1" d="M301.272 303.803C301.349 304.087 301.334 304.395 301.228 304.667C301.122 304.939 300.933 305.156 300.697 305.278C300.199 305.537 299.655 305.656 299.11 305.624L280.616 306.192C280.13 306.206 279.647 306.281 279.176 306.417C277.002 307.061 277.819 308.148 277.586 309.055C277.301 310.163 275.927 310.073 274.969 309.747C275.058 310.734 275.103 311.852 274.717 312.683C275.559 312.828 276.463 312.7 276.687 311.824C276.912 310.948 276.104 309.83 278.278 309.186C278.749 309.051 279.232 308.975 279.718 308.961L298.2 308.393C298.745 308.426 299.289 308.307 299.787 308.047C300.022 307.926 300.211 307.709 300.317 307.437C300.423 307.165 300.439 306.857 300.362 306.572C302.458 307.677 305.255 306.171 305.874 303.609C305.968 303.221 306.02 302.821 306.03 302.418C304.91 303.969 302.883 304.661 301.272 303.803Z" fill="black"/>
</g>
<path d="M276.463 231.459C278.054 235.37 279.46 239.376 280.676 243.462C281.658 246.755 282.524 250.213 282.197 253.675C281.871 257.138 280.101 260.634 277.226 261.725C276.005 262.189 274.696 262.192 273.412 262.227C270.335 262.31 267.264 262.597 264.216 263.085C262.797 263.357 261.366 263.54 259.93 263.636C257.9 263.712 255.87 263.345 253.846 263.535C250.57 263.844 247.459 265.613 244.171 265.613C243.77 265.641 243.369 265.556 243.003 265.363C242.404 264.99 242.137 264.179 241.934 263.432C241.476 261.742 241.116 259.803 241.892 258.277C242.847 256.397 245.018 256.019 246.902 255.853C251.142 255.507 255.387 255.265 259.637 255.126C263.263 255.008 267.192 254.849 270.004 252.197C270.194 252.04 270.348 251.834 270.456 251.595C270.562 251.189 270.55 250.755 270.42 250.359C269.306 245.324 268.827 240.129 269.001 234.935C268.981 234.469 269.086 234.008 269.3 233.613C269.555 233.296 269.885 233.074 270.249 232.976C272.76 232.044 275.448 231.958 277.999 232.727" fill="#FDA8A8"/>
<path d="M268.926 234.932C268.491 235.105 268.113 235.427 267.842 235.856C267.962 234.413 267.8 232.955 267.824 231.501C267.848 230.047 268.081 228.53 268.875 227.402C269.884 225.962 271.6 225.446 273.205 225.397C275.535 225.325 277.945 226.107 279.652 227.942C280.751 229.131 281.464 230.719 281.673 232.443C281.727 232.917 281.907 234.696 281.479 235.001C281.104 235.271 279.682 234.34 279.224 234.191C275.822 233.035 272.177 233.297 268.926 234.932Z" fill="#F75842"/>
<path opacity="0.1" d="M223.638 153.196C224.795 153.196 225.734 152.111 225.734 150.772C225.734 149.434 224.795 148.349 223.638 148.349C222.48 148.349 221.542 149.434 221.542 150.772C221.542 152.111 222.48 153.196 223.638 153.196Z" fill="#15AAD9"/>
<path opacity="0.1" d="M237.712 199.934C238.869 199.934 239.808 198.849 239.808 197.51C239.808 196.172 238.869 195.087 237.712 195.087C236.554 195.087 235.616 196.172 235.616 197.51C235.616 198.849 236.554 199.934 237.712 199.934Z" fill="#15AAD9"/>
<path opacity="0.1" d="M197.885 155.619C199.043 155.619 199.982 154.534 199.982 153.196C199.982 151.857 199.043 150.772 197.885 150.772C196.728 150.772 195.789 151.857 195.789 153.196C195.789 154.534 196.728 155.619 197.885 155.619Z" fill="#15AAD9"/>
<path opacity="0.1" d="M133.505 269.868C136.481 269.868 138.895 267.078 138.895 263.636C138.895 260.194 136.481 257.404 133.505 257.404C130.528 257.404 128.115 260.194 128.115 263.636C128.115 267.078 130.528 269.868 133.505 269.868Z" fill="#15AAD9"/>
<path opacity="0.1" d="M350.603 167.044C351.76 167.044 352.699 165.959 352.699 164.621C352.699 163.282 351.76 162.197 350.603 162.197C349.445 162.197 348.506 163.282 348.506 164.621C348.506 165.959 349.445 167.044 350.603 167.044Z" fill="#15AAD9"/>
<path opacity="0.1" d="M352.998 205.473C356.802 205.473 359.885 201.908 359.885 197.51C359.885 193.113 356.802 189.548 352.998 189.548C349.194 189.548 346.111 193.113 346.111 197.51C346.111 201.908 349.194 205.473 352.998 205.473Z" fill="#15AAD9"/>
<path opacity="0.1" d="M364.078 177.43C365.235 177.43 366.174 176.345 366.174 175.007C366.174 173.668 365.235 172.583 364.078 172.583C362.92 172.583 361.982 173.668 361.982 175.007C361.982 176.345 362.92 177.43 364.078 177.43Z" fill="#15AAD9"/>
<path opacity="0.1" d="M345.512 221.745C346.67 221.745 347.608 220.66 347.608 219.321C347.608 217.983 346.67 216.898 345.512 216.898C344.354 216.898 343.416 217.983 343.416 219.321C343.416 220.66 344.354 221.745 345.512 221.745Z" fill="#15AAD9"/>
<path opacity="0.1" d="M219.445 172.583C220.603 172.583 221.542 171.498 221.542 170.16C221.542 168.822 220.603 167.737 219.445 167.737C218.288 167.737 217.349 168.822 217.349 170.16C217.349 171.498 218.288 172.583 219.445 172.583Z" fill="#15AAD9"/>
<path opacity="0.1" d="M140.991 295.141C142.148 295.141 143.087 294.056 143.087 292.717C143.087 291.379 142.148 290.294 140.991 290.294C139.833 290.294 138.895 291.379 138.895 292.717C138.895 294.056 139.833 295.141 140.991 295.141Z" fill="#15AAD9"/>
<path opacity="0.1" d="M137.697 239.748C138.855 239.748 139.793 238.663 139.793 237.324C139.793 235.986 138.855 234.901 137.697 234.901C136.539 234.901 135.601 235.986 135.601 237.324C135.601 238.663 136.539 239.748 137.697 239.748Z" fill="#15AAD9"/>
<path opacity="0.1" d="M252.684 150.772C253.842 150.772 254.78 149.687 254.78 148.349C254.78 147.011 253.842 145.926 252.684 145.926C251.526 145.926 250.588 147.011 250.588 148.349C250.588 149.687 251.526 150.772 252.684 150.772Z" fill="#15AAD9"/>
<path opacity="0.1" d="M259.571 172.583C260.729 172.583 261.667 171.498 261.667 170.16C261.667 168.822 260.729 167.737 259.571 167.737C258.413 167.737 257.475 168.822 257.475 170.16C257.475 171.498 258.413 172.583 259.571 172.583Z" fill="#15AAD9"/>
</g>
<defs>
<linearGradient id="paint0_linear" x1="244" y1="0" x2="244" y2="549" gradientUnits="userSpaceOnUse">
<stop stop-color="#7EE0FF"/>
<stop offset="1" stop-color="#15AAD9"/>
</linearGradient>
<linearGradient id="paint1_linear" x1="197.155" y1="373.948" x2="197.155" y2="186.778" gradientUnits="userSpaceOnUse">
<stop stop-color="#808080" stop-opacity="0.25"/>
<stop offset="0.54" stop-color="#808080" stop-opacity="0.12"/>
<stop offset="1" stop-color="#808080" stop-opacity="0.1"/>
</linearGradient>
<linearGradient id="paint2_linear" x1="53975.3" y1="147636" x2="53975.3" y2="46653.1" gradientUnits="userSpaceOnUse">
<stop stop-color="#808080" stop-opacity="0.25"/>
<stop offset="0.54" stop-color="#808080" stop-opacity="0.12"/>
<stop offset="1" stop-color="#808080" stop-opacity="0.1"/>
</linearGradient>
<clipPath id="clip0">
<rect width="324" height="251" fill="white" transform="translate(82 130)"/>
</clipPath>
</defs>
</svg>
