<svg width="29" height="29" viewBox="0 0 29 29" fill="none" xmlns="http://www.w3.org/2000/svg">
<path d="M27.7917 14.5L24.8434 11.1288L25.2542 6.67L20.8921 5.67917L18.6084 1.8125L14.5 3.57667L10.3917 1.8125L8.10796 5.66708L3.74587 6.64583L4.15671 11.1167L1.20837 14.5L4.15671 17.8713L3.74587 22.3421L8.10796 23.3329L10.3917 27.1875L14.5 25.4113L18.6084 27.1754L20.8921 23.3208L25.2542 22.33L24.8434 17.8713L27.7917 14.5ZM11.3342 19.3454L8.45837 16.4454C8.34636 16.3336 8.25749 16.2008 8.19685 16.0547C8.13621 15.9085 8.105 15.7518 8.105 15.5935C8.105 15.4353 8.13621 15.2786 8.19685 15.1324C8.25749 14.9862 8.34636 14.8535 8.45837 14.7417L8.54296 14.6571C9.01421 14.1858 9.78754 14.1858 10.2588 14.6571L12.2042 16.6146L18.4271 10.3796C18.8984 9.90833 19.6717 9.90833 20.143 10.3796L20.2275 10.4642C20.6988 10.9354 20.6988 11.6967 20.2275 12.1679L13.0742 19.3454C12.5788 19.8167 11.8175 19.8167 11.3342 19.3454Z" fill="#0BFF7B"/>
</svg>
