<svg width="512" height="549" viewBox="0 0 512 549" fill="none" xmlns="http://www.w3.org/2000/svg">
<path fill-rule="evenodd" clip-rule="evenodd" d="M512 296.744V539C512 544.523 507.523 549 502 549H285.667C256.744 518.522 239 477.333 239 432C239 338.112 315.112 262 409 262C447.721 262 483.418 274.945 512 296.744Z" fill="#1915D9" fill-opacity="0.12"/>
<path fill-rule="evenodd" clip-rule="evenodd" d="M429.5 107C468.988 107 501 74.8486 501 35.1879C501 22.4032 497.674 10.3987 491.843 0H367.157C361.326 10.3987 358 22.4032 358 35.1879C358 74.8486 390.012 107 429.5 107Z" fill="#7EE0FF" fill-opacity="0.28"/>
<ellipse cx="332.5" cy="148.5" rx="111.5" ry="101.5" fill="url(#paint0_linear_464:2)" fill-opacity="0.11"/>
<g clip-path="url(#clip0_464:2)">
<path d="M376.23 528.872C342.829 536.256 299.12 534.86 252.219 528.926C213.856 524.073 170.592 511.933 135.478 497.801C139.103 494.135 143.848 491.783 148.961 491.118C149.104 491.096 149.252 491.075 149.4 491.059C151.988 490.749 154.605 490.749 157.194 491.06C189.986 494.741 183.968 512.69 228.204 492.56C255.715 480.04 285.308 478.279 304.846 482.53C305.206 482.609 305.561 482.689 305.916 482.771C317.218 485.408 324.948 490.104 326.619 495.889C331.181 511.669 310.764 521.248 345.808 521.939C355.531 522.131 366.425 526.471 376.23 528.872Z" fill="#3F3D56"/>
<path d="M510.086 547.201C496.677 546.117 483.296 544.06 469.96 542.328C451.16 539.886 432.369 537.37 413.589 534.779C376.358 529.684 339.15 524.426 301.932 519.245C264.453 514.029 226.963 508.887 189.463 503.822C154.703 499.124 119.929 494.529 85.141 490.037C59.0285 486.705 32.8989 483.484 6.70291 480.874C4.6911 480.674 2.67912 480.475 0.666937 480.279C-0.225344 480.191 -0.219275 481.586 0.666937 481.673C25.0623 484.064 49.4015 486.925 73.7218 489.984C108.429 494.349 143.105 498.971 177.773 503.639C215.274 508.689 252.765 513.815 290.246 519.017C327.307 524.159 364.354 529.399 401.42 534.504C435.803 539.239 470.196 544.155 504.688 548.041C506.485 548.244 508.283 548.45 510.086 548.595C510.981 548.668 510.976 547.273 510.086 547.201Z" fill="#3F3D56"/>
<path d="M191.166 352.284C191.166 352.284 184.553 382.946 193.571 382.345C202.589 381.743 198.381 354.087 198.381 354.087L191.166 352.284Z" fill="#A0616A"/>
<path d="M227.239 498.38L231.448 520.625L241.067 519.423L238.061 495.373L227.239 498.38Z" fill="#A0616A"/>
<path d="M275.938 476.736L278.343 492.969H290.968L288.563 477.939L275.938 476.736Z" fill="#A0616A"/>
<path d="M217.62 337.253C217.62 337.253 207.399 357.094 211.006 406.393C214.613 455.693 214.613 502.588 214.613 502.588L240.466 500.785L247.681 378.136L275.938 484.552L294.576 482.748L289.766 378.737L274.736 328.836L217.62 337.253Z" fill="#2F2E41"/>
<path d="M235.055 510.405C235.055 510.405 236.859 504.994 233.853 504.994H227.239C227.239 504.994 220.025 518.22 215.816 519.423C211.607 520.625 198.381 532.048 211.006 533.25C223.632 534.453 242.871 527.84 242.871 525.435C242.871 523.03 241.067 512.809 241.067 512.809L235.055 510.405Z" fill="#2F2E41"/>
<path d="M287.962 489.362C287.962 489.362 276.91 486.305 277.626 488.134C278.343 489.963 275.938 495.374 275.938 495.374C275.938 495.374 269.926 529.643 287.962 526.637C305.999 523.631 292.772 497.779 292.772 497.779L290.101 487.551L287.962 489.362Z" fill="#2F2E41"/>
<path d="M237.46 207.39C247.421 207.39 255.497 199.315 255.497 189.353C255.497 179.392 247.421 171.317 237.46 171.317C227.499 171.317 219.423 179.392 219.423 189.353C219.423 199.315 227.499 207.39 237.46 207.39Z" fill="#A0616A"/>
<path d="M225.436 198.973C225.436 198.973 228.442 216.408 226.638 220.015C224.834 223.623 241.067 230.837 241.067 230.837L249.484 210.396V198.973L225.436 198.973Z" fill="#A0616A"/>
<path d="M235.055 219.414C235.055 219.414 229.582 220.219 227.208 216.209C224.834 212.2 219.423 244.064 219.423 244.064C219.423 244.064 221.828 286.15 218.822 295.769C215.816 305.389 216.417 308.996 217.619 310.8C218.822 312.603 222.429 310.198 219.423 315.008C216.417 319.818 216.417 316.812 216.417 321.622C216.417 326.431 215.215 343.867 215.215 343.867L280.146 339.057L249.484 207.39C249.484 207.39 239.263 220.015 235.055 219.414Z" fill="#3F3D56"/>
<path d="M260.306 214.003C260.306 214.003 284.956 217.611 286.159 223.022C287.361 228.433 311.41 378.738 298.784 386.553C286.159 394.369 245.276 400.381 243.472 392.566C241.668 384.75 232.049 225.426 249.484 207.39L260.306 214.003Z" fill="#D0CDE1"/>
<path d="M295.028 372.376H289.979C289.979 372.376 291.533 354.124 289.979 352.441C289.979 352.441 275.87 350.888 261.631 366.422C261.631 366.422 264.091 349.464 282.472 348.558C288.364 348.268 291.77 350.611 293.675 353.93C297.716 360.964 295.028 372.376 295.028 372.376Z" fill="#3F3D56"/>
<path opacity="0.15" d="M295.028 372.376H289.98C289.98 372.376 291.533 354.124 289.98 352.442L293.675 353.93C297.717 360.964 295.028 372.376 295.028 372.376Z" fill="black"/>
<path d="M265.385 360.467L258.395 372.376H261.631C261.631 372.376 262.149 363.574 265.385 360.467Z" fill="#3F3D56"/>
<path opacity="0.15" d="M265.385 360.467L258.395 372.376H261.631C261.631 372.376 262.149 363.574 265.385 360.467Z" fill="black"/>
<path d="M325.059 422.73C325.155 424.731 324.763 426.724 323.917 428.539C323.072 430.354 321.798 431.937 320.205 433.151C320.205 433.151 255.871 448.425 248.751 447.131C247.876 446.967 247.026 446.689 246.223 446.303C240.549 443.61 236.972 436.258 236.972 436.258C236.972 436.258 236.864 434.357 236.705 431.261C236.4 425.273 235.905 414.81 235.632 404.96C235.363 395.228 235.31 386.097 235.872 382.473C237.296 373.282 247.133 372.505 247.133 372.505L312.633 369.658C314.784 369.636 316.928 369.917 319.001 370.491C326.082 372.618 325.059 378.072 325.059 378.072C325.059 378.072 324.801 415.74 325.059 422.73Z" fill="#575A89"/>
<path d="M319.001 370.491C314.987 371.742 305.337 374.499 301.889 373.282C297.487 371.729 263.443 372.764 251.017 374.188C238.59 375.612 242.991 409.268 242.991 409.268L235.632 404.96C235.363 395.228 235.31 386.097 235.872 382.473C237.296 373.282 247.133 372.505 247.133 372.505L312.633 369.658C314.784 369.636 316.928 369.917 319.001 370.491Z" fill="#3F3D56"/>
<path d="M271.987 394.641C271.987 394.641 265.752 359.792 277.219 355.017L278.718 355.031C278.718 355.031 275.094 359.82 276.518 368.622C277.941 377.424 277.165 397.488 277.165 397.488C277.165 397.488 272.764 400.077 271.987 394.641Z" fill="#2F2E41"/>
<path d="M276.518 356.196C276.518 356.196 283.378 345.193 295.934 351.277C308.491 357.361 309.656 371.211 309.656 371.211C309.656 371.211 300.983 345.84 276.518 356.196Z" fill="#2F2E41"/>
<path d="M310.562 396.065L308.49 382.732L309.526 370.248L312.115 383.12L313.28 396.065H310.562Z" fill="#2F2E41"/>
<path d="M287.261 394.511L294.51 392.699L301.889 393.605V396.841L295.158 398.912L287.261 398.135V394.511Z" fill="#2F2E41"/>
<path d="M245.062 441.37C245.241 443.056 245.631 444.713 246.224 446.302C240.549 443.609 236.972 436.257 236.972 436.257C236.972 436.257 236.865 434.357 236.705 431.26L241.438 433.215L245.062 441.37Z" fill="#3F3D56"/>
<path d="M248.169 448.49C247.837 448.412 247.534 448.242 247.293 448.001C248.264 448.392 248.673 448.596 248.169 448.49Z" fill="#2F2E41"/>
<path d="M227.204 214.905L203.791 238.052L212.209 313.204C212.209 313.204 195.374 402.185 204.994 402.185C214.613 402.185 213.411 403.387 215.215 396.774C217.018 390.161 227.204 214.905 227.204 214.905Z" fill="#D0CDE1"/>
<path d="M209.804 236.248L203.792 238.052C203.792 238.052 198.381 242.261 198.982 251.279C199.583 260.297 198.381 286.15 198.381 286.15C198.381 286.15 194.773 291.561 196.577 298.174L188.16 355.891L206.798 358.897L213.411 328.836L209.804 236.248Z" fill="#D0CDE1"/>
<path d="M284.355 331.842C284.355 331.842 277.14 369.719 284.355 367.314C291.57 364.909 300.588 338.456 294.576 334.247C288.564 330.039 284.355 331.842 284.355 331.842Z" fill="#A0616A"/>
<path d="M219.381 191.468C219.381 191.468 217.539 188.706 218.247 185.732C218.671 184.043 218.838 182.3 218.743 180.562C218.743 180.562 220.23 175.746 221.718 173.055C223.205 170.363 222.497 169.23 227.171 168.38C231.845 167.53 229.933 161.44 242.256 168.026C242.672 168.607 243.25 169.051 243.918 169.303C244.586 169.555 245.314 169.604 246.01 169.443C248.559 168.947 249.48 172.488 249.48 172.488C249.48 172.488 251.18 171.496 251.817 172.913C252.455 174.329 256.999 172.063 256.999 181.624C256.999 191.185 251.828 199.725 251.828 199.725C251.828 199.725 252.207 183.643 243.779 182.014C235.351 180.385 226.286 175.64 224.09 181.73C222.905 185.149 221.324 188.417 219.381 191.468Z" fill="#2F2E41"/>
<path d="M104.706 389.812C100.713 393.127 93.6731 409.421 93.6731 409.421C95.9257 409.659 98.1927 409.73 100.456 409.635L99.6637 405.309L102.608 409.463C103.757 409.34 104.892 409.11 105.998 408.776L104.779 402.118L108.586 407.488C108.614 407.466 108.643 407.444 108.67 407.421C112.664 404.106 115.013 397.477 113.919 392.614C112.824 387.752 108.699 386.497 104.706 389.812Z" fill="#15AAD9"/>
<path d="M211.126 462.307C207.132 465.622 200.093 481.916 200.093 481.916C202.346 482.154 204.613 482.226 206.876 482.131L206.084 477.805L209.028 481.958C210.177 481.835 211.312 481.606 212.418 481.272L211.198 474.614L215.005 479.984C215.034 479.962 215.063 479.94 215.09 479.917C219.083 476.602 221.433 469.973 220.338 465.11C219.244 460.247 215.119 458.992 211.126 462.307Z" fill="#15AAD9"/>
<path d="M195.497 310.054C192.096 313.597 185.222 329.955 185.222 329.955C186.991 329.995 188.76 329.874 190.508 329.592L190.252 325.473L192.205 329.244C193.137 329.02 194.045 328.703 194.913 328.296L194.519 321.955L197.045 326.832C197.069 326.808 197.093 326.784 197.117 326.76C200.518 323.217 202.912 316.604 202.465 311.991C202.017 307.378 198.898 306.51 195.497 310.054Z" fill="#15AAD9"/>
<path d="M110.102 517.211C105.366 515.911 87.71 517.667 87.71 517.667C88.5182 519.241 89.4682 520.738 90.5482 522.14L94.0476 519.951L91.6633 523.466C92.3047 524.179 93.0167 524.825 93.7884 525.395L99.1741 522.026L96.0914 526.571C96.1239 526.58 96.1562 526.591 96.1888 526.6C100.925 527.9 107.879 526.853 111.721 524.26C115.563 521.668 114.838 518.512 110.102 517.211Z" fill="#3F3D56"/>
<path d="M123.114 509.776C118.378 508.475 100.722 510.231 100.722 510.231C101.53 511.805 102.48 513.303 103.56 514.705L107.06 512.516L104.676 516.031C105.317 516.744 106.029 517.39 106.801 517.959L112.186 514.59L109.104 519.135C109.136 519.145 109.168 519.155 109.201 519.164C113.937 520.465 120.891 519.417 124.733 516.825C128.575 514.232 127.85 511.076 123.114 509.776Z" fill="#3F3D56"/>
<path d="M261.599 539.053C256.863 537.753 239.207 539.509 239.207 539.509C240.016 541.083 240.966 542.58 242.046 543.982L245.545 541.793L243.161 545.308C243.802 546.021 244.514 546.667 245.286 547.236L250.671 543.868L247.589 548.412C247.621 548.422 247.653 548.432 247.686 548.441C252.422 549.742 259.376 548.695 263.218 546.102C267.06 543.51 266.335 540.354 261.599 539.053Z" fill="#3F3D56"/>
<path d="M123.114 528.829C118.378 527.529 100.722 529.285 100.722 529.285C101.53 530.859 102.48 532.356 103.56 533.758L107.06 531.569L104.676 535.085C105.317 535.797 106.029 536.444 106.801 537.013L112.186 533.644L109.104 538.189C109.136 538.198 109.168 538.209 109.201 538.218C113.937 539.518 120.891 538.471 124.733 535.878C128.575 533.286 127.85 530.13 123.114 528.829Z" fill="#3F3D56"/>
<path d="M322.647 363.753C321.197 365.982 320.275 371.599 319.725 376.479L322.458 379.393L319.527 378.355C319.166 382.007 319.025 384.857 319.025 384.857C319.025 384.857 330.793 382.308 333.582 378.022C336.371 373.736 336.184 367.067 333.164 363.126C330.145 359.186 325.436 359.467 322.647 363.753Z" fill="#15AAD9"/>
<path d="M334.893 446.012C333.564 448.241 332.719 453.859 332.214 458.738L334.716 461.651L332.032 460.614C331.701 464.266 331.571 467.117 331.571 467.117C331.571 467.117 342.345 464.564 344.9 460.277C347.454 455.99 347.285 449.322 344.522 445.382C341.758 441.443 337.447 441.725 334.893 446.012Z" fill="#15AAD9"/>
<path d="M275.938 219.414C275.938 219.414 289.766 217.009 292.772 235.046C295.778 253.083 303.594 288.554 303.594 288.554L301.447 342.679L281.349 336.051L281.95 294.567L271.729 232.641L275.938 219.414Z" fill="#D0CDE1"/>
<path opacity="0.15" d="M270.828 243.764L278.643 294.867L276.84 338.155L285.257 296.07L270.828 243.764Z" fill="black"/>
<path d="M332.416 201.602C328.423 204.917 321.383 221.211 321.383 221.211C323.636 221.449 325.903 221.521 328.166 221.426L327.374 217.1L330.318 221.253C331.467 221.13 332.602 220.9 333.708 220.567L332.489 213.909L336.296 219.279C336.324 219.257 336.353 219.235 336.38 219.212C340.374 215.897 342.724 209.268 341.629 204.405C340.534 199.542 336.409 198.287 332.416 201.602Z" fill="#15AAD9"/>
</g>
<defs>
<linearGradient id="paint0_linear_464:2" x1="413.5" y1="107.5" x2="128" y2="263.5" gradientUnits="userSpaceOnUse">
<stop stop-color="#15AAD9" stop-opacity="0.94"/>
<stop offset="1" stop-color="#2907F8" stop-opacity="0.66"/>
</linearGradient>
<clipPath id="clip0_464:2">
<rect width="510.755" height="384" fill="white" transform="translate(0 165)"/>
</clipPath>
</defs>
</svg>
