<svg width="93" height="41" viewBox="0 0 93 41" fill="none" xmlns="http://www.w3.org/2000/svg">
<ellipse cx="21" cy="13" rx="14" ry="10" fill="white" stroke="#29B4E0" stroke-width="4"/>
<ellipse cx="26" cy="20.5" rx="6" ry="4.5" fill="white"/>
<ellipse cx="26.5" cy="25" rx="8.5" ry="7" fill="white"/>
<ellipse cx="24.5" cy="28" rx="15.5" ry="10" stroke="#29B4E0" stroke-width="4"/>
<path d="M20 2L20 38" stroke="#29B4E0" stroke-width="4"/>
<rect x="0.5" y="0.5" width="18" height="40" fill="white" stroke="white"/>
<path d="M64 21C64 26.1628 62.5319 30.7511 60.261 33.9952C57.9857 37.2457 55.0342 39 52 39C48.9658 39 46.0143 37.2457 43.739 33.9952C41.4681 30.7511 40 26.1628 40 21C40 15.8372 41.4681 11.2489 43.739 8.00479C46.0143 4.75435 48.9658 3 52 3C55.0342 3 57.9857 4.75435 60.261 8.00479C62.5319 11.2489 64 15.8372 64 21Z" stroke="#29B4E0" stroke-width="4"/>
<path d="M92 20.5C92 23.4705 90.0212 26.3228 86.4751 28.485C82.9464 30.6367 78.008 32 72.5 32C66.992 32 62.0536 30.6367 58.5249 28.485C54.9788 26.3228 53 23.4705 53 20.5C53 17.5295 54.9788 14.6772 58.5249 12.515C62.0536 10.3634 66.992 9 72.5 9C78.008 9 82.9464 10.3634 86.4751 12.515C90.0212 14.6772 92 17.5295 92 20.5Z" fill="white" stroke="white" stroke-width="2"/>
<path d="M33.224 27.248C35.256 25.616 36.848 24.28 38 23.24C39.152 22.184 40.12 21.088 40.904 19.952C41.704 18.8 42.104 17.672 42.104 16.568C42.104 15.528 41.848 14.712 41.336 14.12C40.84 13.512 40.032 13.208 38.912 13.208C37.824 13.208 36.976 13.552 36.368 14.24C35.776 14.912 35.456 15.816 35.408 16.952H33.296C33.36 15.16 33.904 13.776 34.928 12.8C35.952 11.824 37.272 11.336 38.888 11.336C40.536 11.336 41.84 11.792 42.8 12.704C43.776 13.616 44.264 14.872 44.264 16.472C44.264 17.8 43.864 19.096 43.064 20.36C42.28 21.608 41.384 22.712 40.376 23.672C39.368 24.616 38.08 25.72 36.512 26.984H44.768V28.808H33.224V27.248Z" fill="white"/>
<path d="M33.224 27.248L32.5978 26.4683L32.224 26.7686V27.248H33.224ZM38 23.24L38.6701 23.9823L38.6757 23.9772L38 23.24ZM40.904 19.952L40.0826 19.3816L40.081 19.384L40.904 19.952ZM41.336 14.12L40.5611 14.7521L40.5702 14.7633L40.5796 14.7742L41.336 14.12ZM36.368 14.24L35.6187 13.5778L35.6176 13.579L36.368 14.24ZM35.408 16.952V17.952H36.3666L36.4071 16.9942L35.408 16.952ZM33.296 16.952L32.2966 16.9163L32.2596 17.952H33.296V16.952ZM34.928 12.8L35.6179 13.5239L35.6179 13.5239L34.928 12.8ZM42.8 12.704L42.1112 13.429L42.1173 13.4347L42.8 12.704ZM43.064 20.36L42.219 19.8252L42.2172 19.8281L43.064 20.36ZM40.376 23.672L41.0596 24.4019L41.0657 24.3961L40.376 23.672ZM36.512 26.984L35.8844 26.2055L33.6781 27.984H36.512V26.984ZM44.768 26.984H45.768V25.984H44.768V26.984ZM44.768 28.808V29.808H45.768V28.808H44.768ZM33.224 28.808H32.224V29.808H33.224V28.808ZM33.8502 28.0277C35.8886 26.3905 37.4975 25.0409 38.6701 23.9823L37.3299 22.4977C36.1985 23.5191 34.6234 24.8415 32.5978 26.4683L33.8502 28.0277ZM38.6757 23.9772C39.8759 22.877 40.8953 21.7252 41.727 20.52L40.081 19.384C39.3447 20.4508 38.4281 21.491 37.3243 22.5028L38.6757 23.9772ZM41.7254 20.5224C42.6102 19.2482 43.104 17.9249 43.104 16.568H41.104C41.104 17.4191 40.7978 18.3518 40.0826 19.3816L41.7254 20.5224ZM43.104 16.568C43.104 15.3677 42.8069 14.2921 42.0924 13.4658L40.5796 14.7742C40.8891 15.1319 41.104 15.6883 41.104 16.568H43.104ZM42.1109 13.4879C41.3541 12.5602 40.1987 12.208 38.912 12.208V14.208C39.8653 14.208 40.3259 14.4638 40.5611 14.7521L42.1109 13.4879ZM38.912 12.208C37.5955 12.208 36.4519 12.635 35.6187 13.5778L37.1173 14.9022C37.5001 14.469 38.0525 14.208 38.912 14.208V12.208ZM35.6176 13.579C34.8374 14.4646 34.4639 15.608 34.4089 16.9098L36.4071 16.9942C36.4481 16.024 36.7146 15.3594 37.1184 14.901L35.6176 13.579ZM35.408 15.952H33.296V17.952H35.408V15.952ZM34.2954 16.9877C34.3527 15.3835 34.8301 14.2748 35.6179 13.5239L34.2381 12.0761C32.9779 13.2772 32.3673 14.9365 32.2966 16.9163L34.2954 16.9877ZM35.6179 13.5239C36.4292 12.7506 37.4895 12.336 38.888 12.336V10.336C37.0545 10.336 35.4748 10.8974 34.2381 12.0761L35.6179 13.5239ZM38.888 12.336C40.3455 12.336 41.3799 12.7342 42.1113 13.429L43.4888 11.979C42.3001 10.8498 40.7265 10.336 38.888 10.336V12.336ZM42.1173 13.4347C42.8513 14.1205 43.264 15.0897 43.264 16.472H45.264C45.264 14.6543 44.7007 13.1115 43.4827 11.9733L42.1173 13.4347ZM43.264 16.472C43.264 17.5874 42.9309 18.7004 42.219 19.8252L43.909 20.8948C44.7971 19.4916 45.264 18.0126 45.264 16.472H43.264ZM42.2172 19.8281C41.4748 21.0098 40.6308 22.0484 39.6863 22.9479L41.0657 24.3961C42.1372 23.3756 43.0852 22.2062 43.9108 20.8919L42.2172 19.8281ZM39.6924 22.9421C38.7086 23.8635 37.441 24.9506 35.8844 26.2055L37.1396 27.7625C38.719 26.4894 40.0274 25.3685 41.0596 24.4019L39.6924 22.9421ZM36.512 27.984H44.768V25.984H36.512V27.984ZM43.768 26.984V28.808H45.768V26.984H43.768ZM44.768 27.808H33.224V29.808H44.768V27.808ZM34.224 28.808V27.248H32.224V28.808H34.224Z" fill="url(#paint0_radial_50:362)"/>
<defs>
<radialGradient id="paint0_radial_50:362" cx="0" cy="0" r="1" gradientUnits="userSpaceOnUse" gradientTransform="translate(41.5 22) rotate(90) scale(24.8056 12.4028)">
<stop stop-color="#00C2FF"/>
<stop offset="1" stop-color="#4DA2BD" stop-opacity="0"/>
</radialGradient>
</defs>
</svg>
