<svg width="29" height="29" viewBox="0 0 29 29" fill="none" xmlns="http://www.w3.org/2000/svg">
<g clip-path="url(#clip0_77:718)">
<path d="M22.9063 1.0215L14.4818 9.44646C11.6737 6.63935 8.86482 3.82952 6.05635 1.0215C2.80744 -2.22741 -2.22859 2.81044 1.0176 6.06025C3.82652 8.86646 6.63635 11.6767 9.4421 14.4848C6.63507 17.2941 3.8269 20.1022 1.0176 22.9093C-2.22859 26.1573 2.8079 31.1938 6.05635 27.948C8.86437 25.1391 11.6733 22.3297 14.4813 19.5226L22.9058 27.948C26.1547 31.196 31.1921 26.1577 27.9446 22.9093C25.1356 20.1003 22.3276 17.2923 19.5178 14.4839C22.3272 11.6749 25.1352 8.866 27.9446 6.05753C31.1926 2.81044 26.1552 -2.22741 22.9058 1.02331" fill="#EC1C24"/>
</g>
<defs>
<clipPath id="clip0_77:718">
<rect width="29" height="29" fill="white"/>
</clipPath>
</defs>
</svg>
