<svg width="511" height="384" viewBox="0 0 511 384" fill="none" xmlns="http://www.w3.org/2000/svg">
<g clip-path="url(#clip0)">
<path d="M376.23 363.872C342.829 371.256 299.12 369.86 252.219 363.926C213.856 359.073 170.592 346.933 135.478 332.801C139.103 329.135 143.848 326.783 148.961 326.118C149.104 326.096 149.252 326.075 149.4 326.058C151.988 325.749 154.605 325.749 157.194 326.06C189.986 329.741 183.968 347.69 228.204 327.56C255.715 315.04 285.308 313.278 304.846 317.53C305.206 317.609 305.561 317.689 305.916 317.771C317.218 320.408 324.948 325.104 326.619 330.889C331.181 346.669 310.764 356.248 345.808 356.939C355.531 357.131 366.425 361.471 376.23 363.872Z" fill="#3F3D56"/>
<path d="M510.086 382.201C496.677 381.117 483.296 379.06 469.96 377.328C451.16 374.886 432.369 372.37 413.589 369.779C376.358 364.684 339.15 359.426 301.932 354.245C264.453 349.029 226.963 343.887 189.463 338.822C154.703 334.124 119.929 329.529 85.141 325.037C59.0285 321.705 32.8989 318.484 6.70291 315.874C4.6911 315.674 2.67912 315.475 0.666937 315.279C-0.225344 315.191 -0.219275 316.586 0.666937 316.673C25.0623 319.064 49.4015 321.925 73.7218 324.984C108.429 329.349 143.105 333.971 177.773 338.639C215.274 343.689 252.765 348.815 290.246 354.017C327.307 359.159 364.354 364.399 401.42 369.504C435.803 374.239 470.196 379.155 504.688 383.041C506.485 383.244 508.283 383.45 510.086 383.595C510.981 383.668 510.976 382.273 510.086 382.201Z" fill="#3F3D56"/>
<path d="M191.166 187.284C191.166 187.284 184.553 217.946 193.571 217.345C202.589 216.743 198.381 189.087 198.381 189.087L191.166 187.284Z" fill="#A0616A"/>
<path d="M227.239 333.38L231.448 355.625L241.067 354.423L238.061 330.373L227.239 333.38Z" fill="#A0616A"/>
<path d="M275.938 311.736L278.343 327.969H290.968L288.563 312.939L275.938 311.736Z" fill="#A0616A"/>
<path d="M217.62 172.253C217.62 172.253 207.399 192.094 211.006 241.393C214.613 290.693 214.613 337.588 214.613 337.588L240.466 335.785L247.681 213.136L275.938 319.552L294.576 317.748L289.766 213.737L274.736 163.836L217.62 172.253Z" fill="#2F2E41"/>
<path d="M235.055 345.405C235.055 345.405 236.859 339.994 233.853 339.994H227.239C227.239 339.994 220.025 353.22 215.816 354.423C211.607 355.625 198.381 367.048 211.006 368.25C223.632 369.453 242.871 362.84 242.871 360.435C242.871 358.03 241.067 347.809 241.067 347.809L235.055 345.405Z" fill="#2F2E41"/>
<path d="M287.962 324.362C287.962 324.362 276.91 321.305 277.626 323.134C278.343 324.963 275.938 330.374 275.938 330.374C275.938 330.374 269.926 364.643 287.962 361.637C305.999 358.631 292.772 332.779 292.772 332.779L290.101 322.551L287.962 324.362Z" fill="#2F2E41"/>
<path d="M237.46 42.3899C247.421 42.3899 255.497 34.3146 255.497 24.3533C255.497 14.3919 247.421 6.31668 237.46 6.31668C227.499 6.31668 219.423 14.3919 219.423 24.3533C219.423 34.3146 227.499 42.3899 237.46 42.3899Z" fill="#A0616A"/>
<path d="M225.436 33.9728C225.436 33.9728 228.442 51.4082 226.638 55.0155C224.834 58.6228 241.067 65.8375 241.067 65.8375L249.484 45.396V33.9728L225.436 33.9728Z" fill="#A0616A"/>
<path d="M235.055 54.4143C235.055 54.4143 229.582 55.2192 227.208 51.2094C224.834 47.1996 219.423 79.0642 219.423 79.0642C219.423 79.0642 221.828 121.15 218.822 130.769C215.816 140.389 216.417 143.996 217.619 145.8C218.822 147.603 222.429 145.198 219.423 150.008C216.417 154.818 216.417 151.812 216.417 156.622C216.417 161.431 215.215 178.867 215.215 178.867L280.146 174.057L249.484 42.3899C249.484 42.3899 239.263 55.0155 235.055 54.4143Z" fill="#3F3D56"/>
<path d="M260.306 49.0033C260.306 49.0033 284.956 52.6106 286.159 58.0216C287.361 63.4326 311.41 213.737 298.784 221.553C286.159 229.369 245.276 235.381 243.472 227.566C241.668 219.75 232.049 60.4265 249.484 42.3899L260.306 49.0033Z" fill="#D0CDE1"/>
<path d="M295.028 207.376H289.979C289.979 207.376 291.533 189.124 289.979 187.441C289.979 187.441 275.87 185.888 261.631 201.422C261.631 201.422 264.091 184.464 282.472 183.558C288.364 183.268 291.77 185.611 293.675 188.93C297.716 195.964 295.028 207.376 295.028 207.376Z" fill="#3F3D56"/>
<path opacity="0.15" d="M295.028 207.376H289.98C289.98 207.376 291.533 189.124 289.98 187.442L293.675 188.93C297.717 195.964 295.028 207.376 295.028 207.376Z" fill="black"/>
<path d="M265.385 195.467L258.395 207.376H261.631C261.631 207.376 262.149 198.574 265.385 195.467Z" fill="#3F3D56"/>
<path opacity="0.15" d="M265.385 195.467L258.395 207.376H261.631C261.631 207.376 262.149 198.574 265.385 195.467Z" fill="black"/>
<path d="M325.059 257.73C325.155 259.731 324.763 261.724 323.917 263.539C323.072 265.354 321.798 266.937 320.205 268.151C320.205 268.151 255.871 283.425 248.751 282.131C247.876 281.967 247.026 281.689 246.223 281.303C240.549 278.61 236.972 271.258 236.972 271.258C236.972 271.258 236.864 269.357 236.705 266.261C236.4 260.273 235.905 249.81 235.632 239.96C235.363 230.228 235.31 221.097 235.872 217.473C237.296 208.282 247.133 207.505 247.133 207.505L312.633 204.658C314.784 204.636 316.928 204.917 319.001 205.491C326.082 207.618 325.059 213.072 325.059 213.072C325.059 213.072 324.801 250.74 325.059 257.73Z" fill="#575A89"/>
<path d="M319.001 205.491C314.987 206.742 305.337 209.499 301.889 208.282C297.487 206.729 263.443 207.764 251.017 209.188C238.59 210.612 242.991 244.268 242.991 244.268L235.632 239.96C235.363 230.228 235.31 221.097 235.872 217.473C237.296 208.282 247.133 207.505 247.133 207.505L312.633 204.658C314.784 204.636 316.928 204.917 319.001 205.491Z" fill="#3F3D56"/>
<path d="M271.987 229.641C271.987 229.641 265.752 194.792 277.219 190.017L278.718 190.031C278.718 190.031 275.094 194.82 276.518 203.622C277.941 212.424 277.165 232.488 277.165 232.488C277.165 232.488 272.764 235.077 271.987 229.641Z" fill="#2F2E41"/>
<path d="M276.518 191.195C276.518 191.195 283.378 180.193 295.934 186.277C308.491 192.36 309.656 206.211 309.656 206.211C309.656 206.211 300.983 180.84 276.518 191.195Z" fill="#2F2E41"/>
<path d="M310.562 231.065L308.49 217.732L309.526 205.248L312.115 218.12L313.28 231.065H310.562Z" fill="#2F2E41"/>
<path d="M287.261 229.511L294.51 227.699L301.889 228.605V231.841L295.158 233.913L287.261 233.136V229.511Z" fill="#2F2E41"/>
<path d="M245.062 276.37C245.241 278.056 245.631 279.713 246.224 281.302C240.549 278.609 236.972 271.257 236.972 271.257C236.972 271.257 236.865 269.357 236.705 266.26L241.438 268.215L245.062 276.37Z" fill="#3F3D56"/>
<path d="M248.169 283.49C247.837 283.412 247.534 283.242 247.293 283.001C248.264 283.392 248.673 283.596 248.169 283.49Z" fill="#2F2E41"/>
<path d="M227.204 49.9051L203.791 73.052L212.209 148.204C212.209 148.204 195.374 237.185 204.994 237.185C214.613 237.185 213.411 238.387 215.215 231.774C217.018 225.161 227.204 49.9051 227.204 49.9051Z" fill="#D0CDE1"/>
<path d="M209.804 71.2484L203.792 73.052C203.792 73.052 198.381 77.2606 198.982 86.2788C199.583 95.2971 198.381 121.15 198.381 121.15C198.381 121.15 194.773 126.561 196.577 133.174L188.16 190.891L206.798 193.897L213.411 163.836L209.804 71.2484Z" fill="#D0CDE1"/>
<path d="M284.355 166.842C284.355 166.842 277.14 204.719 284.355 202.314C291.57 199.909 300.588 173.456 294.576 169.247C288.564 165.039 284.355 166.842 284.355 166.842Z" fill="#A0616A"/>
<path d="M219.381 26.4684C219.381 26.4684 217.539 23.7063 218.247 20.7318C218.671 19.043 218.838 17.3002 218.743 15.5617C218.743 15.5617 220.23 10.7458 221.718 8.05456C223.205 5.36331 222.497 4.23015 227.171 3.38028C231.845 2.53041 229.933 -3.56032 242.256 3.02617C242.672 3.60666 243.25 4.05099 243.918 4.30309C244.586 4.55518 245.314 4.60373 246.01 4.44262C248.559 3.94686 249.48 7.48798 249.48 7.48798C249.48 7.48798 251.18 6.49647 251.817 7.91291C252.455 9.32936 256.999 7.06279 256.999 16.6238C256.999 26.1848 251.828 34.7253 251.828 34.7253C251.828 34.7253 252.207 18.6425 243.779 17.0136C235.351 15.3847 226.286 10.6396 224.09 16.7303C222.905 20.1487 221.324 23.4169 219.381 26.4684Z" fill="#2F2E41"/>
<path d="M104.706 224.812C100.713 228.127 93.6731 244.421 93.6731 244.421C95.9257 244.659 98.1927 244.73 100.456 244.635L99.6637 240.309L102.608 244.463C103.757 244.34 104.892 244.11 105.998 243.776L104.779 237.118L108.586 242.488C108.614 242.466 108.643 242.444 108.67 242.421C112.664 239.106 115.013 232.477 113.919 227.614C112.824 222.752 108.699 221.497 104.706 224.812Z" fill="#15AAD9"/>
<path d="M211.126 297.307C207.132 300.622 200.093 316.916 200.093 316.916C202.346 317.154 204.613 317.226 206.876 317.131L206.084 312.805L209.028 316.958C210.177 316.835 211.312 316.606 212.418 316.272L211.198 309.614L215.005 314.984C215.034 314.962 215.063 314.94 215.09 314.917C219.083 311.602 221.433 304.973 220.338 300.11C219.244 295.247 215.119 293.992 211.126 297.307Z" fill="#15AAD9"/>
<path d="M195.497 145.054C192.096 148.597 185.222 164.955 185.222 164.955C186.991 164.995 188.76 164.874 190.508 164.592L190.252 160.473L192.205 164.244C193.137 164.02 194.045 163.703 194.913 163.296L194.519 156.955L197.045 161.832C197.069 161.808 197.093 161.784 197.117 161.76C200.518 158.217 202.912 151.604 202.465 146.991C202.017 142.378 198.898 141.51 195.497 145.054Z" fill="#15AAD9"/>
<path d="M110.102 352.211C105.366 350.911 87.71 352.667 87.71 352.667C88.5182 354.241 89.4682 355.738 90.5482 357.14L94.0476 354.951L91.6633 358.467C92.3047 359.179 93.0167 359.825 93.7884 360.395L99.1741 357.026L96.0914 361.571C96.1239 361.58 96.1562 361.591 96.1888 361.6C100.925 362.9 107.879 361.853 111.721 359.26C115.563 356.668 114.838 353.512 110.102 352.211Z" fill="#3F3D56"/>
<path d="M123.114 344.776C118.378 343.475 100.722 345.231 100.722 345.231C101.53 346.805 102.48 348.303 103.56 349.705L107.06 347.516L104.676 351.031C105.317 351.744 106.029 352.39 106.801 352.959L112.186 349.59L109.104 354.135C109.136 354.145 109.168 354.155 109.201 354.164C113.937 355.465 120.891 354.417 124.733 351.825C128.575 349.232 127.85 346.076 123.114 344.776Z" fill="#3F3D56"/>
<path d="M261.599 374.053C256.863 372.753 239.207 374.509 239.207 374.509C240.016 376.083 240.966 377.58 242.046 378.982L245.545 376.793L243.161 380.308C243.802 381.021 244.514 381.667 245.286 382.236L250.671 378.868L247.589 383.412C247.621 383.422 247.653 383.432 247.686 383.441C252.422 384.742 259.376 383.695 263.218 381.102C267.06 378.51 266.335 375.354 261.599 374.053Z" fill="#3F3D56"/>
<path d="M123.114 363.829C118.378 362.529 100.722 364.285 100.722 364.285C101.53 365.859 102.48 367.356 103.56 368.758L107.06 366.569L104.676 370.085C105.317 370.798 106.029 371.444 106.801 372.013L112.186 368.644L109.104 373.189C109.136 373.198 109.168 373.209 109.201 373.218C113.937 374.518 120.891 373.471 124.733 370.878C128.575 368.286 127.85 365.13 123.114 363.829Z" fill="#3F3D56"/>
<path d="M322.647 198.753C321.197 200.982 320.275 206.599 319.725 211.479L322.458 214.393L319.527 213.355C319.166 217.007 319.025 219.857 319.025 219.857C319.025 219.857 330.793 217.308 333.582 213.022C336.371 208.736 336.184 202.067 333.164 198.126C330.145 194.186 325.436 194.467 322.647 198.753Z" fill="#15AAD9"/>
<path d="M334.893 281.012C333.564 283.241 332.719 288.859 332.214 293.738L334.716 296.651L332.032 295.614C331.701 299.266 331.571 302.117 331.571 302.117C331.571 302.117 342.345 299.564 344.9 295.277C347.454 290.99 347.285 284.322 344.522 280.382C341.758 276.443 337.447 276.725 334.893 281.012Z" fill="#15AAD9"/>
<path d="M275.938 54.4142C275.938 54.4142 289.766 52.0094 292.772 70.0459C295.778 88.0825 303.594 123.554 303.594 123.554L301.447 177.679L281.349 171.051L281.95 129.567L271.729 67.641L275.938 54.4142Z" fill="#D0CDE1"/>
<path opacity="0.15" d="M270.828 78.7637L278.643 129.867L276.84 173.155L285.257 131.07L270.828 78.7637Z" fill="black"/>
<path d="M332.416 36.6025C328.423 39.9175 321.383 56.2114 321.383 56.2114C323.636 56.4493 325.903 56.521 328.166 56.4259L327.374 52.0997L330.318 56.2532C331.467 56.1302 332.602 55.9005 333.708 55.567L332.489 48.9087L336.296 54.2789C336.324 54.2566 336.353 54.2348 336.38 54.212C340.374 50.897 342.724 44.2677 341.629 39.4049C340.534 34.5422 336.409 33.2875 332.416 36.6025Z" fill="#15AAD9"/>
</g>
<defs>
<clipPath id="clip0">
<rect width="510.755" height="384" fill="white"/>
</clipPath>
</defs>
</svg>
